<svg xmlns="http://www.w3.org/2000/svg" width="608.568" height="64.397" viewBox="0 0 608.568 64.397"><path fill="#BFC5D9" d="M494.036 46.006c-20.331.005-43.83-2.997-70.129-11.179-59.188-18.424-85.527-14.834-97.202-8.583-6.692 3.583-7.824 7.73-7.833 7.773-.157.608-.801.975-1.427.829-.631-.149-1.021-.762-.863-1.371.053-.208 1.395-5.153 8.978-9.213 12.083-6.473 39.079-10.267 99.072 8.403 96.902 30.16 155.249-10.761 155.83-11.175a1.21 1.21 0 011.651.224c.389.501.285 1.21-.238 1.588-.429.313-32.302 22.704-87.839 22.704z"/><path fill="#BFC5D9" d="M540.273 32.28c1.109.533 11.121 1.503 13.514-12.317C556.185 6.142 563.638 0 563.638 0s-15.21.512-21.714 8.701c-6.504 8.191-6.379 21.309-1.651 23.579zM571.233 26.74c-.152-1.132 2.049-10.155 15.67-8.007 13.626 2.149 21.665-2.467 21.665-2.467s-5.203 13.107-14.852 16.265c-9.649 3.16-21.838-.973-22.483-5.791zM533.876 47.313c-.421 1.333.765 20.22 25.387 16.632l7.426-1.279s-4.89-.765-7.426-3.579c-3.462-3.843-4.46-9.976-8.974-13.071-3.601-2.474-14.678-4.17-16.413 1.297z"/><path fill="#BFC5D9" d="M540.631 39.768l-2.111-.288 1.306-8.822 2.107.289zM536.985 48.547l-7.645-5.725 1.31-1.611 7.646 5.726zM571.251 28.965l-.054-2.048 9.686-.24.057 2.049z"/><g fill="#BFC5D9"><path d="M509.354 44.879l6.795-12.347-6.795 12.347zM510.297 45.358l-1.883-.957 6.795-12.347 1.883.957z"/></g><g fill="#BFC5D9"><path d="M502.07 44.968l10.683 6.862-10.683-6.862z"/><path d="M512.158 52.681l-10.678-6.862 1.185-1.7 10.679 6.862z"/></g><path fill="#BFC5D9" d="M522.482 29.629c0 2.583-2.179 4.677-4.867 4.677-2.684 0-4.862-2.093-4.862-4.677s2.179-4.677 4.862-4.677c2.689.001 4.867 2.094 4.867 4.677z"/><ellipse fill="#BFC5D9" cx="516.229" cy="52.846" rx="4.625" ry="4.446"/><path fill="#BFC5D9" d="M432.791 34.899c0 2.262-1.91 4.096-4.264 4.096-2.348 0-4.258-1.834-4.258-4.096 0-2.261 1.91-4.095 4.258-4.095 2.354 0 4.264 1.834 4.264 4.095z"/><ellipse fill="#BFC5D9" cx="316.467" cy="34.59" rx="6.918" ry="6.652"/><g><path fill="#BFC5D9" d="M114.527 46.006c-55.546.005-87.41-22.392-87.839-22.702a1.101 1.101 0 01-.232-1.588 1.21 1.21 0 011.651-.224c.577.416 58.923 41.334 155.826 11.175 59.993-18.67 86.99-14.876 99.072-8.403 7.583 4.06 8.925 9.005 8.979 9.213.156.608-.229 1.221-.863 1.371-.626.146-1.266-.217-1.423-.82-.018-.065-1.266-4.328-8.021-7.88-11.725-6.167-38.078-9.665-97.019 8.681-26.296 8.18-49.799 11.177-70.131 11.177z"/><path fill="#BFC5D9" d="M68.291 32.28c-1.109.533-11.121 1.503-13.514-12.317C52.379 6.142 44.926 0 44.926 0s15.21.512 21.714 8.701c6.505 8.191 6.379 21.309 1.651 23.579zM37.33 26.74c.152-1.132-2.049-10.155-15.67-8.007C8.034 20.882 0 16.265 0 16.265S5.198 29.372 14.847 32.53c9.649 3.161 21.839-.972 22.483-5.79zM74.688 47.313c.42 1.333-.765 20.22-25.386 16.632l-7.426-1.279s4.89-.765 7.426-3.579c3.462-3.843 4.46-9.976 8.978-13.071 3.596-2.474 14.672-4.17 16.408 1.297z"/><path fill="#BFC5D9" d="M67.933 39.768l-1.302-8.821 2.107-.289 1.306 8.822zM71.579 48.547l-1.311-1.61 7.645-5.726 1.311 1.611zM37.312 28.965l-9.689-.239.058-2.049 9.685.24z"/><g fill="#BFC5D9"><path d="M99.211 44.879l-6.795-12.347 6.795 12.347zM98.271 45.358l-6.799-12.347 1.883-.957 6.795 12.347z"/></g><g fill="#BFC5D9"><path d="M106.493 44.968L95.811 51.83l10.682-6.862z"/><path d="M96.406 52.681l-1.185-1.7 10.677-6.862 1.186 1.7z"/></g><path fill="#BFC5D9" d="M86.081 29.629c0 2.583 2.179 4.677 4.867 4.677 2.684 0 4.863-2.093 4.863-4.677s-2.179-4.677-4.863-4.677c-2.688.001-4.867 2.094-4.867 4.677z"/><ellipse fill="#BFC5D9" cx="92.335" cy="52.846" rx="4.625" ry="4.446"/><ellipse fill="#BFC5D9" cx="180.033" cy="34.899" rx="4.261" ry="4.096"/><path fill="#BFC5D9" d="M285.178 34.59c0 3.675 3.096 6.652 6.916 6.652 3.825 0 6.92-2.978 6.92-6.652 0-3.672-3.096-6.649-6.92-6.649-3.82 0-6.916 2.977-6.916 6.649z"/></g></svg>