<svg xmlns="http://www.w3.org/2000/svg" width="517.997" height="108.383" viewBox="0 0 517.997 108.383"><path fill="#BFC5D9" d="M444.924 78.25c-.23-1.76-2.874-2.338-5.898-1.29-.52.185-1.119.494-1.752.871.436-.465.817-.926 1.086-1.357 1.775-2.865 2.011-5.58.527-6.075-1.487-.494-4.127 1.425-5.903 4.29-1.776 2.862-2.61 8.606-2.61 8.606s6.461 1.089 9.485.042c3.029-1.048 5.295-3.327 5.065-5.087zM503.937 104.943c2.166-1.015 1.177-4.312-2.204-7.361-.582-.528-1.387-1.086-2.305-1.651.901.302 1.756.545 2.506.675 4.944.838 8.677-.042 8.346-1.965-.335-1.928-4.608-4.165-9.553-5.003-4.939-.838-13.051.629-13.051.629s2.832 7.927 6.218 10.977c3.38 3.054 7.877 4.708 10.043 3.699zM498.858 38.534c-2.091.712-2.317 3.821-.503 6.944.311.537.792 1.127 1.366 1.737-.642-.369-1.266-.675-1.839-.865-3.784-1.25-7.119-.815-7.45.976-.331 1.792 2.468 4.259 6.251 5.51 3.779 1.252 10.881.712 10.881.712s.168-7.525-1.643-10.648c-1.813-3.124-4.972-5.079-7.063-4.366zM475.128 6.074c-1.655.341-1.491 2.75.36 5.382.318.453.783.965 1.328 1.502-.574-.356-1.127-.66-1.621-.867-3.281-1.373-6-1.375-6.071-.008-.075 1.368 2.522 3.588 5.799 4.958 3.28 1.372 9.112 1.682 9.112 1.682s-.704-5.87-2.556-8.501c-1.851-2.632-4.696-4.488-6.351-4.148zM377.926 87.954c2.297.377 4.412-2.167 4.73-5.674.055-.603-.013-1.332-.146-2.119.344.611.708 1.164 1.102 1.6 2.59 2.837 5.82 4.026 7.219 2.656 1.396-1.369.432-4.78-2.157-7.616-2.585-2.841-9.226-5.707-9.226-5.707s-4.789 6.327-5.104 9.838c-.315 3.503 1.291 6.653 3.582 7.022zM420.07 7.167c-1.529-2.365-5.668-1.401-9.238 2.147-.615.609-1.252 1.46-1.885 2.432.297-.961.523-1.877.607-2.681.557-5.296-.968-9.35-3.406-9.05-2.438.299-4.873 4.837-5.43 10.135-.562 5.298 2.174 14.082 2.174 14.082s9.9-2.807 13.475-6.358c3.573-3.549 5.233-8.344 3.703-10.707zM384.248 48.126c-1.524-.896-2.689-2.367-3.318-4.033-.896-2.394-.787-5.139-.158-7.74.535-2.221 1.361-5.271 2.773-7.158 2.241 2.665 4.524 6.85 5.338 10.321.641 2.726.335 5.729-.852 8.432-.167.385-.394.802-.787.963-.264.105-.549.076-.812.027a6.513 6.513 0 01-2.184-.812zM499.654 27.232c.059 1.228-.402 2.48-1.223 3.5-1.174 1.464-2.996 2.491-4.949 3.163-1.662.572-3.988 1.31-5.807 1.249.783-2.34 2.535-5.31 4.445-7.154 1.496-1.447 3.574-2.466 5.824-2.857.322-.055.688-.092.955.071.18.107.281.283.36.455.241.505.366 1.036.395 1.573zM457.527 90.539c-.667-1.446-.508-3.181.335-4.814 1.21-2.351 3.67-4.504 6.493-6.302 2.414-1.524 5.812-3.59 8.762-4.437-.177 3.201-1.613 7.65-3.826 10.826-1.738 2.493-4.604 4.764-8.044 6.373-.49.234-1.06.461-1.571.401-.339-.037-.582-.196-.791-.359a4.56 4.56 0 01-1.358-1.688zM367.259 58.841c1.357 1.234 2.137 3.036 2.263 4.963.18 2.762-.854 5.736-2.404 8.468-1.32 2.329-3.235 5.518-5.396 7.336-1.547-3.284-2.64-8.236-2.367-12.162.218-3.08 1.546-6.306 3.736-9.053.311-.392.696-.809 1.178-.917.318-.071.62.011.893.106a6.176 6.176 0 012.097 1.259zM401.502 76.825c.507.444 5.723 2.615 9.255-3.511 3.536-6.116 8.534-7.747 8.534-7.747s-8.245-2.358-13.067.402c-4.823 2.758-6.892 8.979-4.722 10.856zM490.555 82.582c.809.164 7.528-.737 6.967-9.703-.565-8.962 3.377-13.907 3.377-13.907s-9.904 2.611-12.908 8.687-.893 14.224 2.564 14.923zM397.664 41.062c.18.779 6.31 9.833 17.483 1.381l3.314-2.648s-2.652.945-4.739.234c-2.849-.97-5.141-3.743-8.291-4.06-2.513-.251-8.509 1.909-7.767 5.093zM497.199 82.168c.18.779 6.31 9.833 17.484 1.378l3.313-2.647s-2.652.946-4.738.234c-2.845-.968-5.142-3.741-8.292-4.056-2.509-.252-8.508 1.906-7.767 5.091zM414.791 87.124c-.758.708-6.527 13.248 11.753 19.499l5.585 1.76s-3.113-2.188-3.884-4.877c-1.056-3.67.394-7.96-1.647-11.518-1.629-2.837-8.698-7.776-11.807-4.864z"/><path fill="#BFC5D9" d="M454.883 94.465c-30.25.004-64.719-20.957-95.559-39.711-18.117-11.015-35.224-21.42-49.452-26.353-22.088-7.663-36.999 1.536-43.585 12.699-5.816 9.858-5.522 20.97.687 25.855 13.994 10.993 26.32.503 26.84.046a1.476 1.476 0 012.032.096 1.342 1.342 0 01-.097 1.953c-.143.13-14.706 12.544-30.598.05-7.282-5.723-7.873-18.351-1.37-29.366 7.164-12.146 23.291-22.182 47.067-13.941 14.525 5.04 31.767 15.522 50.017 26.619 34.444 20.944 73.488 44.684 105.162 38.189 22.063-4.517 36.488-12.355 44.102-23.957 4.776-7.279 5.723-16.116 2.598-24.244-3.344-8.692-10.91-15.529-20.236-18.299-6.666-1.975-15.18-1.127-19.072 7.192-1.479 3.169-2.236 8.048-.394 11.274.977 1.711 2.594 2.734 4.814 3.046.787.111 1.332.813 1.219 1.571-.117.756-.851 1.275-1.634 1.169-3.117-.436-5.514-1.976-6.926-4.454-2.329-4.079-1.529-9.84.293-13.743 3.838-8.209 12.688-11.624 22.55-8.704 10.177 3.023 18.435 10.493 22.088 19.985 3.44 8.943 2.396 18.669-2.861 26.68-8.053 12.268-23.077 20.513-45.937 25.197-3.829.782-7.755 1.151-11.748 1.151z"/><path fill="#BFC5D9" d="M375.944 52.303c-.587 0-1.173-.015-1.764-.048-10.27-.567-21.846-1.789-29.864-6.54a1.359 1.359 0 01-.47-1.906 1.466 1.466 0 011.981-.453c7.475 4.429 18.611 5.585 28.516 6.132 8.057.438 15.942-2.478 20.563-7.629 3.763-4.196 5.086-9.475 3.833-15.268-.963-4.454-3.213-8.061-6.171-9.907-2.175-1.355-4.692-1.745-7.483-1.152-4.285.903-5.856 3.082-6.418 4.749-.545 1.619-.205 2.966.042 3.308.637.344.913 1.102.615 1.76-.318.702-1.165 1.024-1.894.719-1.349-.562-2.128-2.55-1.898-4.835.16-1.563 1.27-6.792 8.938-8.409 3.569-.75 6.82-.234 9.661 1.538 3.604 2.241 6.31 6.494 7.429 11.664 1.445 6.668-.101 12.77-4.471 17.641-4.851 5.408-12.832 8.636-21.145 8.636z"/><path fill="#BFC5D9" d="M401.15 30.766l-1.019-1.299c.804-.613 3.004-6.37 4.583-11.356l1.622.473c-.813 2.568-3.59 11.028-5.186 12.182zM379.435 74.37c-.097-3.963-6.695-11.253-9.23-13.725l1.207-1.145c.394.382 9.582 9.414 9.716 14.832l-1.693.038zM422.002 86.822c-.645 0-1.211-.084-1.668-.251l.608-1.521c2.078.768 8.898-1.277 12.409-5.982l1.375.951c-3.239 4.339-9.183 6.803-12.724 6.803zM495.553 92.806c-6.712-.193-12.917-1.479-16.252-2.171-1.043-.218-2.124-.444-2.371-.444h-.004l-.353-1.583c.406-.117.931-.017 3.088.436 3.276.679 9.385 1.948 15.942 2.133l-.05 1.629zM514.733 59.261l-11.999-7.664.934-1.357 12.004 7.663zM487.145 21.609l-8.753-6.797 1.064-1.268 8.752 6.8zM299.243 67.361c0 2.434-1.894 4.403-4.231 4.403-2.342 0-4.236-1.97-4.236-4.403 0-2.435 1.895-4.408 4.236-4.408 2.338 0 4.231 1.974 4.231 4.408z"/><ellipse fill="#BFC5D9" cx="380.212" cy="24.232" rx="4.665" ry="4.485"/><ellipse fill="#BFC5D9" cx="478.926" cy="46.025" rx="4.665" ry="4.487"/><g><path fill="#BFC5D9" d="M73.073 78.25c.23-1.76 2.874-2.338 5.899-1.29.52.185 1.119.494 1.751.871-.436-.465-.817-.926-1.085-1.357-1.777-2.865-2.011-5.58-.528-6.075 1.487-.494 4.127 1.425 5.903 4.29 1.776 2.862 2.615 8.606 2.615 8.606s-6.46 1.089-9.49.042c-3.029-1.048-5.295-3.327-5.065-5.087zM14.061 104.943c-2.166-1.015-1.177-4.312 2.208-7.361.578-.528 1.383-1.086 2.305-1.651-.905.302-1.76.545-2.51.675-4.939.838-8.677-.042-8.342-1.965.331-1.928 4.609-4.165 9.548-5.003 4.94-.838 13.051.629 13.051.629s-2.833 7.927-6.218 10.977c-3.38 3.054-7.876 4.708-10.042 3.699zM19.139 38.534c2.091.712 2.317 3.821.507 6.944-.314.537-.796 1.127-1.37 1.737.642-.369 1.27-.675 1.84-.865 3.783-1.25 7.118-.815 7.449.976.331 1.792-2.468 4.259-6.247 5.51-3.783 1.252-10.881.712-10.881.712s-.172-7.525 1.638-10.648c1.814-3.124 4.973-5.079 7.064-4.366zM42.869 6.074c1.655.341 1.492 2.75-.36 5.382-.318.453-.783.965-1.328 1.502.574-.356 1.127-.66 1.622-.867 3.281-1.373 6-1.375 6.071-.008.076 1.368-2.522 3.588-5.798 4.958-3.281 1.372-9.113 1.682-9.113 1.682s.704-5.87 2.556-8.501c1.851-2.632 4.695-4.488 6.35-4.148zM140.071 87.954c-2.296.377-4.412-2.167-4.73-5.674-.05-.603.013-1.332.146-2.119-.343.611-.708 1.164-1.102 1.6-2.589 2.837-5.82 4.026-7.215 2.656-1.399-1.369-.436-4.78 2.153-7.616 2.589-2.841 9.226-5.707 9.226-5.707s4.789 6.327 5.103 9.838c.316 3.503-1.289 6.653-3.581 7.022zM97.927 7.167c1.529-2.365 5.668-1.401 9.242 2.147.612.609 1.249 1.46 1.881 2.432-.297-.961-.52-1.877-.607-2.681-.557-5.296.968-9.35 3.406-9.05 2.438.299 4.873 4.837 5.43 10.135.562 5.298-2.174 14.082-2.174 14.082s-9.9-2.807-13.474-6.358c-3.574-3.549-5.234-8.344-3.704-10.707zM133.749 48.126c1.525-.896 2.689-2.367 3.318-4.033.897-2.394.788-5.139.159-7.74-.536-2.221-1.361-5.271-2.773-7.158-2.237 2.665-4.525 6.85-5.337 10.321-.637 2.726-.335 5.729.85 8.432.172.385.394.802.792.963.26.105.544.076.809.027a6.51 6.51 0 002.182-.812zM18.347 27.232c-.062 1.228.398 2.48 1.22 3.5 1.173 1.464 2.995 2.491 4.948 3.163 1.664.572 3.989 1.31 5.807 1.249-.784-2.34-2.535-5.31-4.445-7.154-1.496-1.447-3.574-2.466-5.824-2.857-.323-.055-.687-.092-.956.071-.18.107-.28.283-.36.455a4.104 4.104 0 00-.39 1.573zM60.471 90.539c.666-1.446.502-3.181-.335-4.814-1.211-2.351-3.67-4.504-6.494-6.302-2.413-1.524-5.811-3.59-8.761-4.437.176 3.201 1.613 7.65 3.825 10.826 1.739 2.493 4.604 4.764 8.044 6.373.49.234 1.06.461 1.571.401.339-.037.582-.196.792-.359a4.58 4.58 0 001.358-1.688zM150.738 58.841c-1.357 1.234-2.137 3.036-2.263 4.963-.18 2.762.854 5.736 2.405 8.468 1.319 2.329 3.234 5.518 5.396 7.336 1.546-3.284 2.64-8.236 2.367-12.162-.218-3.08-1.546-6.306-3.737-9.053-.31-.392-.695-.809-1.177-.917-.318-.071-.62.011-.893.106a6.18 6.18 0 00-2.098 1.259zM116.496 76.825c-.507.444-5.723 2.615-9.255-3.511-3.536-6.116-8.534-7.747-8.534-7.747s8.245-2.358 13.067.402c4.822 2.758 6.892 8.979 4.722 10.856zM27.443 82.582c-.809.164-7.529-.737-6.968-9.703.566-8.962-3.376-13.907-3.376-13.907s9.904 2.611 12.908 8.687.892 14.224-2.564 14.923zM120.333 41.062c-.18.779-6.31 9.833-17.483 1.381l-3.314-2.648s2.657.945 4.739.234c2.849-.97 5.141-3.743 8.292-4.06 2.512-.251 8.512 1.909 7.766 5.093zM20.798 82.168c-.18.779-6.31 9.833-17.483 1.378L0 80.898s2.652.946 4.739.234c2.845-.968 5.141-3.741 8.292-4.056 2.513-.251 8.509 1.907 7.767 5.092zM103.206 87.124c.758.708 6.528 13.248-11.752 19.499l-5.585 1.76s3.113-2.188 3.884-4.877c1.056-3.67-.394-7.96 1.646-11.518 1.63-2.837 8.698-7.776 11.807-4.864z"/><path fill="#BFC5D9" d="M63.114 94.465c-3.993 0-7.915-.369-11.748-1.148-22.859-4.685-37.884-12.93-45.936-25.198C.172 60.108-.871 50.384 2.569 41.441c3.653-9.494 11.911-16.964 22.088-19.987 9.863-2.924 18.711.492 22.549 8.704 1.827 3.903 2.623 9.664.293 13.743-1.412 2.478-3.809 4.018-6.926 4.454-.779.104-1.517-.413-1.63-1.169-.117-.758.428-1.46 1.215-1.571 2.22-.312 3.838-1.334 4.818-3.046 1.839-3.226 1.085-8.105-.398-11.274-3.892-8.321-12.406-9.167-19.072-7.192-9.326 2.77-16.893 9.609-20.232 18.299-3.129 8.128-2.183 16.964 2.593 24.244 7.613 11.602 22.042 19.44 44.102 23.957 31.674 6.503 70.714-17.245 105.162-38.189 18.25-11.097 35.491-21.579 50.017-26.619 23.777-8.246 39.903 1.795 47.067 13.941 6.503 11.015 5.912 23.643-1.37 29.366-15.887 12.489-30.455.08-30.597-.05a1.345 1.345 0 01-.101-1.953 1.483 1.483 0 012.036-.096c.52.448 12.892 10.914 26.839-.046 6.209-4.886 6.502-15.997.687-25.855-6.586-11.163-21.498-20.366-43.585-12.699-14.229 4.933-31.339 15.338-49.452 26.353-30.835 18.752-65.308 39.709-95.558 39.709z"/><path fill="#BFC5D9" d="M142.053 52.303c-8.316 0-16.294-3.228-21.146-8.637-4.37-4.873-5.916-10.973-4.471-17.641 1.119-5.17 3.826-9.423 7.429-11.664 2.845-1.772 6.096-2.288 9.662-1.538 7.667 1.617 8.777 6.846 8.937 8.409.23 2.283-.549 4.273-1.894 4.835-.733.306-1.584-.017-1.898-.719-.298-.658-.021-1.414.616-1.76.247-.341.586-1.688.042-3.308-.562-1.67-2.133-3.846-6.419-4.749-2.79-.593-5.308-.203-7.483 1.152-2.958 1.844-5.208 5.453-6.171 9.907-1.252 5.792.071 11.071 3.833 15.265 4.622 5.154 12.511 8.08 20.563 7.632 9.909-.547 21.041-1.703 28.515-6.132a1.472 1.472 0 011.982.453c.415.651.205 1.504-.474 1.906-8.015 4.751-19.591 5.973-29.86 6.54-.586.035-1.176.049-1.763.049z"/><path fill="#BFC5D9" d="M116.848 30.766c-1.597-1.152-4.374-9.613-5.187-12.182l1.622-.473c1.579 4.986 3.783 10.743 4.583 11.356l-1.018 1.299zM138.562 74.37l-1.688-.037c.13-5.418 9.318-14.45 9.712-14.832l1.207 1.145c-2.535 2.471-9.134 9.761-9.231 13.724zM95.991 86.822c-3.536 0-9.481-2.464-12.72-6.804l1.374-.951c3.507 4.705 10.328 6.75 12.41 5.982l.607 1.521c-.456.168-1.021.252-1.671.252zM22.44 92.806l-.05-1.63c6.561-.185 12.666-1.454 15.946-2.133 2.158-.452 2.682-.553 3.088-.436l-.239.779-.113.804h-.004c-.248 0-1.328.227-2.372.444-3.335.692-9.54 1.978-16.256 2.172zM3.264 59.261l-.939-1.358 12.004-7.663.934 1.357zM30.854 21.609l-1.065-1.265 8.753-6.8 1.063 1.268zM218.754 67.361c0 2.434 1.894 4.403 4.236 4.403 2.338 0 4.231-1.97 4.231-4.403 0-2.435-1.894-4.408-4.231-4.408-2.342 0-4.236 1.974-4.236 4.408z"/><ellipse fill="#BFC5D9" cx="137.788" cy="24.232" rx="4.667" ry="4.485"/><ellipse fill="#BFC5D9" cx="39.072" cy="46.025" rx="4.665" ry="4.487"/></g></svg>