<svg xmlns="http://www.w3.org/2000/svg" width="649.412" height="169.219" viewBox="0 0 649.412 169.219"><path fill="#BFC5D9" d="M127.288 118.024c.48.312.932.647 1.35 1.01 2.845 2.46 3.391 7.575 1.015 10.492-3.765 4.624-9.834.842-12.829-2.605-3.737-4.3-7.273-17.631-7.273-17.631.647 2.432 3.815 3.257 5.84 4.032 3.636 1.389 8.456 2.46 11.897 4.702z"/><path fill="#BFC5D9" d="M259.73 166.062c-1.383 0-2.806-.072-4.245-.229-7.123-.753-12.037-5.74-13.839-14.04-3.079-14.167 3.458-36.753 16.243-50.452-14.195-15.032-28.587-19.506-48.539-7.586-6.905 4.128-13.8 8.713-20.471 13.142-21.018 13.968-42.755 28.408-69.166 31.822-26.596 3.397-54.87-8.434-72.05-30.227-8.222-10.43-15.484-29.145-12.003-45.577 2.08-9.801 7.759-17.398 16.421-21.978 10.609-5.594 26.836-8.088 37.339-2.024 7.58 4.373 12.143 12.879 11.619 21.659-.458 7.725-4.802 13.905-11.925 16.957-5.004 2.147-10.274 1.199-14.469-2.588-4.686-4.239-6.883-11.156-5.221-16.438 1.395-4.429 5.154-7.246 10.593-7.938 1.255-.123 2.376.725 2.532 1.963s-.72 2.371-1.958 2.527c-3.687.468-5.99 2.086-6.85 4.808-1.138 3.62.558 8.657 3.943 11.719 1.657 1.5 5.115 3.737 9.65 1.785 5.488-2.354 8.835-7.112 9.192-13.063.407-6.978-3.353-14-9.371-17.47-8.986-5.188-23.684-2.783-32.96 2.109-7.547 3.982-12.288 10.347-14.106 18.909-3.18 15.011 3.542 32.207 11.128 41.835 16.215 20.571 42.883 31.794 67.917 28.536 25.362-3.274 46.653-17.42 67.241-31.097 6.716-4.462 13.661-9.075 20.655-13.253 23.64-14.129 40.34-6.476 54.179 8.238a38.69 38.69 0 015.812-4.245c7.307-4.316 14.458-5.41 21.235-3.24 13.281 4.25 20.176 19.473 20.466 20.119a2.259 2.259 0 01-1.149 2.984 2.267 2.267 0 01-2.99-1.144c-.061-.14-6.387-14.039-17.727-17.654-5.5-1.74-11.396-.792-17.531 2.834-1.774 1.049-3.475 2.304-5.093 3.721 4.407 5.143 8.534 10.921 12.539 16.828 12.801 18.887 9.187 30.919 5.89 36.401-4.356 7.258-12.751 11.347-22.931 11.347zm1.206-61.335c-11.435 12.512-17.654 33.284-14.865 46.107 1.395 6.415 4.719 9.951 9.89 10.498 10.28 1.087 18.809-2.254 22.819-8.941 4.73-7.882 2.683-19.077-5.757-31.538-4.123-6.081-8.116-11.502-12.087-16.126z"/><path fill="#BFC5D9" d="M137.027 132.137c-5.327 0-12.857-4.903-13.181-5.115a.646.646 0 01-.184-.892.65.65 0 01.892-.185c.073.05 7.536 4.903 12.472 4.903.05 0 .095-.012.15 0 .352 0 .636.278.647.63a.65.65 0 01-.63.658l-.166.001zM32.402 46.828c.401.574.764 1.177 1.077 1.796 2.147 4.234.653 11.195-3.174 14.252-6.058 4.841-11.229-2.248-13.13-7.843-2.376-6.973-.831-25.854-.831-25.854-.279 3.441 2.889 5.622 4.813 7.34 3.458 3.091 8.356 6.159 11.245 10.309z"/><path fill="#BFC5D9" d="M37.835 68.872a.755.755 0 01-.223-.034c-6.008-1.707-12.495-11-12.768-11.396a.814.814 0 01.207-1.132.822.822 0 011.138.206c.062.089 6.426 9.209 11.87 10.754a.817.817 0 01-.224 1.602zM178.086 89.075c5.578 3.766 8.233 9.572 5.941 12.975-2.293 3.396-8.674 3.101-14.252-.664-5.572-3.766-10.458-16.025-10.458-16.025s13.197-.051 18.769 3.714z"/><path fill="#BFC5D9" d="M189.025 106.222a.767.767 0 01-.446-.14l-13.984-9.438a.801.801 0 01-.218-1.11.805.805 0 011.11-.217l13.983 9.438a.805.805 0 01.218 1.109.792.792 0 01-.663.358zM174.327 128.55c.591-7.959 5.003-14.123 9.861-13.766 4.853.356 8.312 7.105 7.72 15.071-.591 7.965-10.336 20.22-10.336 20.22s-7.831-13.559-7.245-21.525z"/><path fill="#BFC5D9" d="M183.235 128.567h-.067a.955.955 0 01-.876-1.021l1.479-19.969c.039-.519.446-.954 1.015-.876a.95.95 0 01.875 1.021l-1.478 19.964a.95.95 0 01-.948.881zM112.803 145.021c4.3-4.947 10.096-6.944 12.952-4.468 2.862 2.482 1.69 8.507-2.61 13.454-4.295 4.947-16.433 8.473-16.433 8.473s1.79-12.51 6.091-17.459z"/><path fill="#BFC5D9" d="M118.832 149.289a.735.735 0 01-.496-.189.752.752 0 01-.078-1.065l10.776-12.405a.76.76 0 011.071-.078.762.762 0 01.072 1.07l-10.776 12.405a.754.754 0 01-.569.262zM210.65 71.65c-2.7 0-5.227-.424-7.563-1.277-6.476-2.365-11.362-7.932-14.53-16.55-6.499-17.688 6.721-50.994 7.284-52.405.24-.591.72-1.06 1.322-1.277a2.27 2.27 0 011.835.117c1.345.708 32.982 17.526 39.486 35.214 3.168 8.618 3.051 16.025-.352 22.021-2.9 5.098-8.133 9.069-15.557 11.797-4.272 1.573-8.26 2.36-11.925 2.36zM199.138 5.512c-2.878 7.893-11.295 33.239-6.331 46.749 2.688 7.313 6.666 11.976 11.831 13.855 4.479 1.635 9.995 1.277 16.382-1.076 6.387-2.343 10.821-5.64 13.175-9.784 2.711-4.78 2.728-10.911.039-18.223-4.97-13.521-27.8-27.371-35.096-31.521z"/><path fill="#BFC5D9" d="M228.059 86.459a2.258 2.258 0 01-2.142-1.534c-1.958-5.751-5.204-14.943-6.124-16.711a2.24 2.24 0 01-.207-1.517c.067-.335 6.644-33.384-23.231-62.824a2.256 2.256 0 01-.022-3.196 2.258 2.258 0 013.202-.022c29.491 29.061 25.569 60.754 24.626 66.215 1.662 3.776 5.566 15.211 6.041 16.6a2.27 2.27 0 01-1.417 2.873 2.217 2.217 0 01-.726.116z"/><path fill="#BFC5D9" d="M221.271 67.985c-.468 0-.937-.146-1.338-.446-1.166-.881-28.453-21.933-24.219-65.491.123-1.232 1.249-2.12 2.448-2.013a2.24 2.24 0 012.008 2.448c-3.983 40.959 22.189 61.279 22.457 61.48a2.239 2.239 0 01-1.356 4.022zM34.79 169.219c-14.877 0-32.536-7.195-33.496-7.592a2.09 2.09 0 01-1.154-2.683c.524-1.367 12.963-33.557 27.756-40.741 6.258-3.046 11.92-3.592 16.845-1.64 5.628 2.226 10.124 7.658 13.359 16.137 6.063 15.875 2.181 27.705-11.211 34.209-3.437 1.668-7.642 2.31-12.099 2.31zm-29.959-10.71c6.693 2.494 29.016 10.068 40.222 4.636 11.301-5.489 14.375-15.228 9.137-28.949-2.8-7.341-6.498-11.959-10.988-13.738-3.787-1.501-8.316-.987-13.471 1.511-11.396 5.532-22 29.517-24.9 36.54z"/><path fill="#BFC5D9" d="M2.092 161.789a2.1 2.1 0 01-1.261-.424 2.098 2.098 0 01-.407-2.935c22.903-30.327 50.118-27.95 55.306-27.175 3.279-1.863 12.589-6.08 13.732-6.599a2.093 2.093 0 012.772 1.043 2.09 2.09 0 01-1.043 2.771c-4.607 2.081-12.444 5.74-13.873 6.711a2.129 2.129 0 01-1.589.317c-1.166-.245-28.732-5.305-51.964 25.458a2.096 2.096 0 01-1.673.833z"/><path fill="#BFC5D9" d="M6.688 161.923c-1.54 0-3.118-.05-4.736-.162a2.069 2.069 0 01-1.924-2.209 2.082 2.082 0 012.209-1.924c35.208 2.454 50.77-24.354 50.926-24.627a2.065 2.065 0 012.823-.78 2.071 2.071 0 01.775 2.822c-.156.284-15.662 26.88-50.073 26.88z"/><g><path fill="#BFC5D9" d="M87.094 53.494c0 2.688-2.181 4.875-4.875 4.875s-4.875-2.187-4.875-4.875c0-2.694 2.181-4.875 4.875-4.875s4.875 2.181 4.875 4.875z"/></g><g><path fill="#BFC5D9" d="M311.527 111.666a4.877 4.877 0 01-4.875 4.875 4.878 4.878 0 010-9.756 4.878 4.878 0 014.875 4.881z"/></g><g><path fill="#BFC5D9" d="M522.121 118.024c-.474.312-.926.647-1.344 1.01-2.845 2.46-3.392 7.575-1.016 10.492 3.76 4.624 9.828.842 12.83-2.605 3.731-4.3 7.268-17.631 7.268-17.631-.646 2.432-3.815 3.257-5.834 4.032-3.642 1.389-8.462 2.46-11.904 4.702z"/><path fill="#BFC5D9" d="M366.748 154.716c-3.291-5.482-6.905-17.515 5.896-36.401 3.999-5.907 8.133-11.686 12.539-16.828-1.617-1.417-3.318-2.672-5.093-3.721-6.142-3.626-12.031-4.574-17.537-2.834-11.34 3.615-17.659 17.515-17.727 17.654a2.265 2.265 0 01-2.989 1.144 2.26 2.26 0 01-1.144-2.984c.284-.646 7.179-15.869 20.465-20.119 6.777-2.17 13.923-1.076 21.229 3.24a38.486 38.486 0 015.818 4.245c13.839-14.714 30.533-22.367 54.178-8.238 6.995 4.178 13.939 8.791 20.655 13.253 20.589 13.677 41.879 27.822 67.236 31.097 25.034 3.258 51.702-7.965 67.917-28.536 7.592-9.628 14.308-26.824 11.128-41.835-1.813-8.562-6.56-14.926-14.106-18.909-9.276-4.892-23.975-7.296-32.955-2.109-6.018 3.47-9.783 10.492-9.37 17.47.351 5.952 3.704 10.709 9.187 13.063 4.541 1.953 7.993-.284 9.655-1.785 3.386-3.062 5.076-8.099 3.938-11.719-.854-2.722-3.157-4.34-6.845-4.808a2.265 2.265 0 01-1.963-2.527c.161-1.238 1.282-2.086 2.532-1.963 5.438.691 9.203 3.508 10.598 7.938 1.657 5.282-.535 12.199-5.227 16.438-4.188 3.787-9.465 4.735-14.469 2.588-7.117-3.051-11.469-9.231-11.926-16.957-.524-8.78 4.039-17.286 11.625-21.659 10.497-6.063 26.729-3.57 37.332 2.024 8.669 4.58 14.347 12.177 16.422 21.978 3.486 16.432-3.781 35.146-12.004 45.577-17.18 21.793-45.448 33.624-72.05 30.227-26.405-3.414-48.143-17.854-69.166-31.822-6.671-4.429-13.565-9.014-20.466-13.142-19.952-11.92-34.349-7.446-48.539 7.586 12.785 13.699 19.322 36.285 16.243 50.452-1.808 8.3-6.716 13.287-13.839 14.04a39.51 39.51 0 01-4.244.229c-10.182-.001-18.577-4.09-22.934-11.347zm9.645-33.863c-8.445 12.461-10.486 23.656-5.762 31.538 4.011 6.688 12.545 10.028 22.819 8.941 5.171-.547 8.501-4.083 9.896-10.498 2.789-12.823-3.431-33.596-14.865-46.107-3.978 4.624-7.966 10.045-12.088 16.126z"/><path fill="#BFC5D9" d="M512.383 132.137c5.326 0 12.862-4.903 13.186-5.115a.645.645 0 00.185-.892.652.652 0 00-.893-.185c-.078.05-7.536 4.903-12.478 4.903-.051 0-.09-.012-.15 0a.645.645 0 00-.012 1.288l.162.001zM617.014 46.828a14.504 14.504 0 00-1.082 1.796c-2.143 4.234-.653 11.195 3.174 14.252 6.062 4.841 11.228-2.248 13.136-7.843 2.376-6.973.825-25.854.825-25.854.284 3.441-2.89 5.622-4.809 7.34-3.458 3.091-8.356 6.159-11.244 10.309z"/><path fill="#BFC5D9" d="M611.574 68.872a.757.757 0 00.224-.034c6.007-1.707 12.495-11 12.768-11.396a.809.809 0 00-.206-1.132.816.816 0 00-1.133.206c-.066.089-6.431 9.209-11.875 10.754a.818.818 0 00.222 1.602zM471.323 89.075c-5.572 3.766-8.233 9.572-5.94 12.975 2.299 3.396 8.68 3.101 14.252-.664 5.578-3.766 10.459-16.025 10.459-16.025s-13.193-.051-18.771 3.714z"/><path fill="#BFC5D9" d="M460.391 106.222a.779.779 0 00.446-.14l13.979-9.438a.801.801 0 00.218-1.11.805.805 0 00-1.11-.217l-13.979 9.438a.8.8 0 00-.218 1.109.792.792 0 00.664.358zM475.083 128.55c-.591-7.959-5.003-14.123-9.856-13.766-4.853.356-8.311 7.105-7.725 15.071.591 7.965 10.341 20.22 10.341 20.22s7.831-13.559 7.24-21.525z"/><path fill="#BFC5D9" d="M466.175 128.567h.073a.957.957 0 00.875-1.021l-1.479-19.969c-.038-.519-.451-.954-1.021-.876a.95.95 0 00-.87 1.021l1.479 19.964a.945.945 0 00.943.881zM536.607 145.021c-4.295-4.947-10.096-6.944-12.952-4.468-2.855 2.482-1.69 8.507 2.61 13.454s16.438 8.473 16.438 8.473-1.795-12.51-6.096-17.459z"/><path fill="#BFC5D9" d="M530.583 149.289a.756.756 0 00.497-.189.752.752 0 00.072-1.065l-10.776-12.405a.758.758 0 00-1.143.992l10.776 12.405c.15.172.362.262.574.262zM426.834 69.29c-7.419-2.728-12.656-6.699-15.551-11.797-3.403-5.997-3.521-13.404-.357-22.021C417.43 17.784 449.073.967 450.418.258a2.267 2.267 0 013.15 1.16c.569 1.411 13.783 34.717 7.285 52.405-3.168 8.618-8.055 14.185-14.524 16.55-2.343.853-4.864 1.277-7.563 1.277-3.671 0-7.654-.787-11.932-2.36zm-11.658-32.257c-2.688 7.312-2.672 13.443.045 18.223 2.354 4.144 6.788 7.441 13.175 9.784 6.387 2.354 11.897 2.711 16.377 1.076 5.165-1.879 9.143-6.542 11.831-13.855 4.97-13.51-3.453-38.855-6.326-46.749-7.301 4.15-30.132 18-35.102 31.521z"/><path fill="#BFC5D9" d="M421.356 86.459c.942 0 1.818-.591 2.142-1.534 1.958-5.751 5.205-14.943 6.125-16.711.24-.469.312-1.004.206-1.517-.072-.335-6.648-33.384 23.232-62.824a2.263 2.263 0 00-3.18-3.218c-29.496 29.061-25.569 60.754-24.626 66.215-1.668 3.776-5.572 15.211-6.041 16.6a2.263 2.263 0 001.411 2.873c.24.083.492.116.731.116z"/><path fill="#BFC5D9" d="M428.139 67.985c.469 0 .938-.146 1.345-.446 1.16-.881 28.447-21.933 24.214-65.491-.123-1.232-1.244-2.12-2.443-2.013a2.246 2.246 0 00-2.014 2.448c3.982 40.959-22.188 61.279-22.451 61.48a2.233 2.233 0 00-.44 3.129 2.235 2.235 0 001.789.893zM602.527 166.909c-13.398-6.504-17.275-18.334-11.217-34.209 3.24-8.479 7.736-13.911 13.358-16.137 4.931-1.952 10.593-1.406 16.846 1.64 14.792 7.185 27.237 39.374 27.761 40.741a2.097 2.097 0 01-1.16 2.683c-.959.396-18.619 7.592-33.495 7.592-4.451 0-8.662-.642-12.093-2.31zm17.159-44.941c-5.154-2.498-9.689-3.012-13.471-1.511-4.49 1.779-8.189 6.397-10.989 13.738-5.243 13.722-2.17 23.46 9.132 28.949 11.205 5.433 33.534-2.142 40.228-4.636-2.907-7.022-13.505-31.007-24.9-36.54z"/><path fill="#BFC5D9" d="M647.318 161.789c.44 0 .881-.14 1.26-.424a2.103 2.103 0 00.413-2.935c-22.903-30.327-50.123-27.95-55.305-27.175-3.28-1.863-12.595-6.08-13.738-6.599a2.097 2.097 0 00-2.772 1.043 2.095 2.095 0 001.049 2.771c4.602 2.081 12.444 5.74 13.866 6.711a2.136 2.136 0 001.59.317c1.166-.245 28.737-5.305 51.964 25.458a2.106 2.106 0 001.673.833z"/><path fill="#BFC5D9" d="M642.722 161.923c1.545 0 3.118-.05 4.735-.162a2.068 2.068 0 001.925-2.209 2.073 2.073 0 00-2.203-1.924c-35.208 2.454-50.776-24.354-50.927-24.627a2.065 2.065 0 00-2.822-.78 2.073 2.073 0 00-.781 2.822c.162.284 15.663 26.88 50.073 26.88z"/><g><path fill="#BFC5D9" d="M562.322 53.494a4.877 4.877 0 004.875 4.875 4.88 4.88 0 004.875-4.875 4.877 4.877 0 00-4.875-4.875 4.873 4.873 0 00-4.875 4.875z"/></g><g><path fill="#BFC5D9" d="M337.883 111.666a4.882 4.882 0 004.881 4.875 4.88 4.88 0 004.875-4.875 4.882 4.882 0 00-4.875-4.881 4.883 4.883 0 00-4.881 4.881z"/></g></g></svg>