<svg xmlns="http://www.w3.org/2000/svg" width="450" height="450" viewBox="254.984 -0.998 450 450"><path fill="#BFC5D9" d="M598.025 275.423a1.87 1.87 0 01-.403-2.606 1.87 1.87 0 012.606-.403l20.548 15.016a1.868 1.868 0 01.403 2.605 1.868 1.868 0 01-2.605.403l-20.549-15.015zm-230.413-13.888a13.214 13.214 0 01.298-9.901c1.359-3.106 3.905-5.697 7.31-7.026s7.034-1.15 10.14.209a13.254 13.254 0 015.63 4.659l9.094-3.546a13.497 13.497 0 01.053-5.077 13.54 13.54 0 015.802-8.646 13.536 13.536 0 0110.199-2.016c.858.172 1.71.425 2.523.769a453.667 453.667 0 01-8.102-16.367c-10.072-21.407-18.584-43.523-23.072-59.166-1.792-6.235-4.047-13.754-6.727-21.743-2.718-8.101-5.892-16.8-9.498-25.372-.687-1.635-2.061-4.323-3.651-7.407.015 7.108 0 13.858-2.21 19.832.441.456.747 1.061.822 1.748.784 7.108.799 13.626-.269 20.025a56.886 56.886 0 01-1.941 8.012c6.459 6.138 10.856 12.245 14.239 18.458 2.65 4.876 4.644 9.767 6.496 14.777a28.358 28.358 0 014.256-3.062 2.983 2.983 0 013.031 5.137c-2.628 1.561-4.577 3.33-6.018 5.286l-.007.007a16.65 16.65 0 00-1.15 1.777c-1.546 2.74-2.367 5.891-2.853 9.348a2.985 2.985 0 01-3.36 2.546 2.985 2.985 0 01-2.546-3.36c.575-4.114 1.598-7.944 3.569-11.446.202-.351.403-.702.627-1.045-2.128-5.891-4.279-11.573-7.288-17.106-2.778-5.107-6.317-10.147-11.32-15.217a69.952 69.952 0 01-2.539 5.16 2.987 2.987 0 01-4.047 1.202 2.988 2.988 0 01-1.202-4.047c3.233-5.966 5.189-11.618 6.153-17.39.702-4.211.888-8.519.657-13.074a25.18 25.18 0 01-2.471 2.367 2.984 2.984 0 11-3.83-4.578c7.265-6.1 7.25-15.411 7.228-25.536-.007-3.51-.015-7.116.239-10.64.015-.165.037-.329.075-.493-1.523-3.3-2.83-6.511-3.577-9.244-2.33.075-4.57.314-6.205 1.143-1.494.762-2.569 2.225-2.823 4.98-1.314 14.493-5.01 32.174-8.489 48.824-.747 3.584-1.486 7.123-2.016 9.714-5.085 24.827 8.982 44.703 23.841 65.691 2.845 4.025 5.72 8.086 8.079 11.581 1.307 1.941 2.74 4.331 4.286 7.063 1.412 2.509 3.054 5.57 4.838 8.975a2.979 2.979 0 01-1.262 4.017 2.979 2.979 0 01-4.017-1.262 354.531 354.531 0 00-4.771-8.818c-1.456-2.583-2.8-4.831-4.024-6.646-2.912-4.316-5.458-7.915-7.982-11.491-15.621-22.071-30.412-42.978-24.819-70.313.769-3.771 1.389-6.735 2.016-9.737 2.837-13.589 5.816-27.865 7.504-40.342-.022-.097-.03-.202-.045-.298-.806-8.796-1.516-21.952.321-31.838 1.725-9.289 5.48-15.972 12.828-15.367a50.359 50.359 0 01-1.352-4.189c-2.188-8.116-1.508-15.09 5.607-18.606-1.672-3.458-2.195-6.548-1.859-9.192.433-3.382 2.195-5.958 4.741-7.624v.008l.007-.008a8.92 8.92 0 01.567-.351c4.226-2.427 9.632-1.688 14.971.493 3.397 1.389 6.832 3.382 9.871 5.466.313-.956.724-1.8 1.225-2.539a9.065 9.065 0 013.666-3.181c1.352-.642 2.867-.971 4.472-1.03 4.339-.165 9.438 1.747 13.328 4.346 1.434.956 4.309 2.852 7.616 5.04 18.637 12.305 52.543 34.69 56.135 40.589 5.928 9.722 11.356 18.562 16.882 26.664 3.569 5.227 7.183 10.132 10.998 14.762-2.135-11.319-4.584-26.29-1.739-32.017 1.239-2.501 2.986-4.316 5.003-5.466 2.299-1.314 4.912-1.762 7.519-1.381 2.494.366 4.98 1.508 7.146 3.382 2.441 2.113 4.473 5.159 5.63 9.064 1.143 2.733 2.352 5.891 3.636 9.266.276.015.553.067.822.164 5.607 1.971 6.413 5.227 5.122 8.9-.329.934-.821 1.844-1.396 2.733 3.979 9.975 8.482 19.898 13.515 25.566 1.837 2.068 3.696 4.413 5.585 7.003 1.837 2.524 3.719 5.339 5.652 8.4 14.754 23.386 16.65 43.083 18.405 61.361 2.554 26.529 4.801 49.922 49.332 77.332a2.984 2.984 0 11-3.127 5.085c-47.04-28.963-49.43-53.745-52.133-81.857-1.694-17.591-3.517-36.549-17.524-58.748a151.46 151.46 0 00-5.443-8.072c-1.762-2.427-3.501-4.622-5.211-6.541-3.891-4.375-7.385-10.767-10.559-17.763.09.567.143 1.135.165 1.702a14.172 14.172 0 01-3.801 10.214 14.148 14.148 0 01-5.107 3.509c2.733 3.353 4.891 7.138 6.601 11.35 2.068 5.07 3.487 10.745 4.518 17.001a14.204 14.204 0 018.063 4.032c2.576 2.576 4.174 6.137 4.174 10.072s-1.598 7.497-4.174 10.073a14.222 14.222 0 01-7.086 3.86v11.902c0 .284-.037.56-.111.821a14.2 14.2 0 017.205 3.882c2.576 2.576 4.174 6.138 4.174 10.073s-1.598 7.497-4.174 10.072a14.23 14.23 0 01-7.086 3.86v11.902c0 .284-.037.56-.112.821a14.21 14.21 0 017.206 3.883 14.209 14.209 0 014.174 10.073c0 3.935-1.599 7.496-4.174 10.072a14.23 14.23 0 01-7.086 3.86v11.902c0 .284-.038.56-.112.821a14.195 14.195 0 017.205 3.883 14.205 14.205 0 014.174 10.073c0 3.935-1.598 7.496-4.174 10.072a14.23 14.23 0 01-7.086 3.86v11.901c0 .284-.037.561-.111.821a14.195 14.195 0 017.205 3.883 14.205 14.205 0 014.174 10.073c0 3.935-1.598 7.496-4.174 10.072a14.238 14.238 0 01-7.086 3.86v11.901c0 .284-.037.561-.112.821a14.202 14.202 0 017.206 3.883 14.208 14.208 0 014.174 10.072c0 3.936-1.599 7.497-4.174 10.073a14.246 14.246 0 01-7.086 3.86v11.901c0 .202-.022.403-.061.59h2.271a2.986 2.986 0 012.986 2.986v11.186h9.206a2.986 2.986 0 012.987 2.986v10.67a2.987 2.987 0 01-2.987 2.987h-9.206v18.801a2.986 2.986 0 01-2.986 2.986h-10.67a2.986 2.986 0 01-2.987-2.986v-18.801h-9.206a2.986 2.986 0 01-2.986-2.987v-10.67a2.986 2.986 0 012.986-2.986h9.206v-11.186a2.986 2.986 0 012.987-2.986h2.546a3.123 3.123 0 01-.06-.59v-11.901a14.184 14.184 0 01-7.086-3.86 14.205 14.205 0 01-4.174-10.073c0-3.935 1.598-7.496 4.174-10.072a14.202 14.202 0 017.205-3.883 3.008 3.008 0 01-.111-.821v-11.901a14.176 14.176 0 01-7.086-3.86 14.204 14.204 0 01-4.174-10.072c0-1.113.127-2.203.373-3.241-4.002-3.621-8.221-6.697-12.581-9.445l4.502 25.192a2.988 2.988 0 01-2.412 3.465 2.987 2.987 0 01-3.464-2.412l-5.265-29.463a2.962 2.962 0 01-.037-.717c-4.383-2.427-8.862-4.659-13.357-6.893-16.777-8.348-33.816-16.829-48.183-36.384-3.838-5.227-7.743-11.29-11.604-17.875l-.067.358a13.54 13.54 0 01-5.801 8.646 13.529 13.529 0 01-10.192 2.016 13.569 13.569 0 01-8.393-5.436l-9.251 3.614c.366 2.501 0 5.002-.979 7.243a13.228 13.228 0 01-7.257 7.003v.008c-.097.037-.194.075-.291.104a13.209 13.209 0 01-9.901-.299 13.234 13.234 0 01-7.004-7.258h-.007a3.757 3.757 0 01-.104-.291l-.024-.007zm5.749-7.512a7.277 7.277 0 00-.172 5.414l.045.112h-.008l.022.052a7.27 7.27 0 009.273 4.203l.112-.045v.008l.052-.022a7.277 7.277 0 004.144-9.438 7.277 7.277 0 00-9.438-4.144 7.273 7.273 0 00-4.03 3.86zm145.108 156.778v4.697h9.206a2.985 2.985 0 012.986 2.986v18.801h4.696v-18.801a2.986 2.986 0 012.987-2.986h9.206v-4.697h-9.206a2.986 2.986 0 01-2.987-2.986v-11.186h-4.696v11.186a2.985 2.985 0 01-2.986 2.986h-9.206zm20.525-52.416a8.254 8.254 0 00-5.854-2.427 8.252 8.252 0 00-5.854 2.427 8.25 8.25 0 00-2.427 5.854c0 2.284.926 4.353 2.427 5.854s3.569 2.427 5.854 2.427c2.284 0 4.353-.926 5.854-2.427s2.427-3.569 2.427-5.854a8.25 8.25 0 00-2.427-5.854zm0-203.063a8.25 8.25 0 00-5.854-2.427h-.045l-.09.015c-.217.03-.433.038-.643.022a8.255 8.255 0 00-5.069 2.39 8.248 8.248 0 00-2.427 5.854c0 2.285.926 4.353 2.427 5.854s3.569 2.427 5.854 2.427a8.248 8.248 0 005.854-2.427 8.254 8.254 0 002.427-5.854 8.254 8.254 0 00-2.427-5.854h-.007zm-8.841 19.786a14.184 14.184 0 01-7.086-3.86 14.209 14.209 0 01-4.174-10.073c0-3.935 1.599-7.497 4.174-10.072a14.267 14.267 0 016.108-3.614c-.948-5.607-2.24-10.685-4.069-15.18-2.017-4.951-4.704-9.199-8.341-12.693a14.297 14.297 0 01-4.704-1.508l-2.374 8.042a15.137 15.137 0 015.555 5.473c1.867 3.173 2.539 7.011 1.449 10.789a14.242 14.242 0 01-6.803 8.52 14.185 14.185 0 01-9.229 1.568 2.816 2.816 0 01-.187.516l-4.764 10.013a13.603 13.603 0 014.428 6.152 13.534 13.534 0 01-.53 10.371 13.55 13.55 0 01-7.728 6.981 13.526 13.526 0 01-8.871.075l-4.831 6.75c1.605 1.881 2.562 4.167 2.867 6.556.434 3.367-.433 6.944-2.553 9.908-2.129 2.972-5.13 4.801-8.363 5.361-3.046.523-6.271-.097-9.124-1.971l-6.205 5.966a13.171 13.171 0 011.867 7.063 13.197 13.197 0 01-4.024 9.251l.007.007a2.865 2.865 0 01-.231.209 13.198 13.198 0 01-9.259 3.517 13.197 13.197 0 01-9.251-4.024l-.008.007a3.274 3.274 0 01-.209-.231 14.99 14.99 0 01-.717-.844L428.674 237c4.839 8.684 9.781 16.628 14.605 23.207 13.492 18.375 29.889 26.536 46.039 34.57 11.268 5.607 22.423 11.155 32.645 20.048a14.202 14.202 0 018.317-5.137 3.019 3.019 0 01-.111-.821v-11.901a14.17 14.17 0 01-7.086-3.861 14.202 14.202 0 01-4.174-10.072c0-3.935 1.598-7.496 4.174-10.072a14.202 14.202 0 017.205-3.883 2.975 2.975 0 01-.112-.821v-11.902a14.184 14.184 0 01-7.086-3.86c-2.576-2.576-4.174-6.137-4.174-10.072s1.598-7.497 4.174-10.073a14.21 14.21 0 017.206-3.883 2.97 2.97 0 01-.112-.821v-11.902a14.177 14.177 0 01-7.086-3.86c-2.576-2.576-4.174-6.138-4.174-10.073s1.598-7.497 4.174-10.073a14.193 14.193 0 017.205-3.882 3.013 3.013 0 01-.111-.821v-11.902l-.039-.025zm8.841 142.665a8.253 8.253 0 00-5.854-2.426 8.252 8.252 0 00-5.854 2.426 8.25 8.25 0 00-2.427 5.854c0 2.284.926 4.353 2.427 5.854s3.569 2.427 5.854 2.427c2.284 0 4.353-.926 5.854-2.427s2.427-3.569 2.427-5.854a8.252 8.252 0 00-2.427-5.854zm0-40.61a8.254 8.254 0 00-5.854-2.427 8.248 8.248 0 00-5.854 2.427c-1.501 1.501-2.427 3.57-2.427 5.854s.926 4.353 2.427 5.854a8.253 8.253 0 005.854 2.426 8.255 8.255 0 005.854-2.426c1.501-1.502 2.427-3.57 2.427-5.854s-.926-4.353-2.427-5.854zm0-40.612a8.253 8.253 0 00-5.854-2.426 8.252 8.252 0 00-5.854 2.426 8.25 8.25 0 00-2.427 5.854 8.25 8.25 0 002.427 5.854 8.254 8.254 0 005.854 2.427 8.252 8.252 0 005.854-2.427c1.501-1.501 2.427-3.569 2.427-5.854s-.926-4.353-2.427-5.854zm0-40.611a8.25 8.25 0 00-5.854-2.427 8.248 8.248 0 00-5.854 2.427 8.248 8.248 0 00-2.427 5.854c0 2.285.926 4.354 2.427 5.854a8.25 8.25 0 005.854 2.427 8.252 8.252 0 005.854-2.427 8.248 8.248 0 002.427-5.854 8.25 8.25 0 00-2.427-5.854zM405.99 242.032a7.628 7.628 0 001.128 5.742 7.605 7.605 0 004.846 3.241 7.628 7.628 0 005.742-1.128 7.602 7.602 0 003.24-4.846 7.628 7.628 0 00-1.128-5.742c-1.164-1.748-2.927-2.853-4.846-3.241s-3.987-.037-5.742 1.127a7.61 7.61 0 00-3.24 4.847zm19.81-10.297l4.637-3.091a13.01 13.01 0 01-.269-2.942c.066-3.39 1.426-6.757 4.062-9.288s6.056-3.756 9.445-3.688a13.27 13.27 0 016.981 2.15l6.205-5.958a13.292 13.292 0 01-1.703-4.667 13.204 13.204 0 012.3-9.871 13.204 13.204 0 018.624-5.354 13.247 13.247 0 017.25.836l4.555-6.361a13.612 13.612 0 01-3.367-5.234 13.534 13.534 0 01.53-10.371 13.553 13.553 0 017.728-6.981 13.564 13.564 0 017.549-.448l4.749-9.998.067-.142a14.265 14.265 0 01-4.607-5.002 14.216 14.216 0 01-1.202-10.827c1.098-3.786 3.479-6.765 6.556-8.527a13.274 13.274 0 018.132-1.672l3.099-10.491a14.21 14.21 0 01-2.359-5.414c-.082-.067-.157-.142-.231-.216-6.511-6.915-12.275-14.433-17.92-22.691-5.593-8.184-11.073-17.114-17.047-26.917-2.897-4.756-36.086-26.671-54.335-38.722-2.71-1.792-5.055-3.337-7.639-5.062-2.986-1.994-6.757-3.457-9.811-3.338-.784.03-1.509.179-2.121.471a3.102 3.102 0 00-1.285 1.105c-.493.739-.806 1.792-.888 3.226a48.048 48.048 0 012.74 2.464c5.234 5.107 12.978 11.603 20.922 18.271 13.06 10.946 26.663 22.355 31.502 29.71 9.983 15.165 19.13 31.024 28.142 46.659a2632.357 2632.357 0 009.318 16.068 2.973 2.973 0 01-1.06 4.069 2.972 2.972 0 01-4.069-1.061 2477.522 2477.522 0 01-9.341-16.113c-8.968-15.553-18.069-31.338-27.956-46.361-4.33-6.578-17.613-17.711-30.359-28.403-8.012-6.712-15.807-13.253-21.25-18.569a47.84 47.84 0 00-2.964-2.628 3.086 3.086 0 01-.881-.702c-3.367-2.651-7.788-5.562-12.133-7.333-3.793-1.545-7.399-2.203-9.766-.844-.149.083-.239.142-.276.165v.007c-1.135.739-1.919 1.882-2.105 3.382-.231 1.822.328 4.204 2.001 7.124.082.142.164.284.246.418 14.299 5.279 29.292 25.954 39.439 39.961 1.202 1.658 2.345 3.241 3.069 4.219 10.058 13.694 18.629 27.238 26.559 41.38 7.885 14.052 15.188 28.769 22.729 44.86.694 1.486.053 3.263-1.434 3.957s-3.263.052-3.957-1.434c-7.438-15.852-14.665-30.419-22.542-44.457-7.833-13.955-16.277-27.306-26.163-40.775-1.21-1.643-2.121-2.904-3.092-4.241-9.729-13.417-24.102-33.249-36.631-37.856-5.204 1.837-5.66 6.63-4.114 12.365.769 2.86 2.001 5.944 3.435 9.065.045.089.089.179.127.269 1.65 3.562 3.546 7.168 5.324 10.536.642 1.224 1.269 2.412 1.896 3.614l.336-.045a13.668 13.668 0 015.391.448c3.696 1.075 7.13 3.778 9.482 8.729h-.007l50.109 98.052a2.98 2.98 0 01-1.292 4.002 2.978 2.978 0 01-4.002-1.292l-50.154-98.135-.044-.082h-.008c-1.531-3.218-3.591-4.928-5.749-5.555-.993-.291-2.039-.358-3.084-.239a9.884 9.884 0 00-3.121.911c-2.457 1.165-4.42 3.218-5.085 5.488-.731 2.516 4.771 13.201 8.953 21.31 1.748 3.397 3.278 6.369 4.144 8.422 3.688 8.766 6.914 17.599 9.662 25.79a531.115 531.115 0 016.824 21.997c4.413 15.389 12.798 37.162 22.722 58.255a439.744 439.744 0 009.855 19.682l.027-.039zM527.518 90.638a695.217 695.217 0 01-2.681-7.003c-1.522-4.01-2.956-7.773-4.323-11.051a2.355 2.355 0 01-.111-.329c-.807-2.808-2.188-4.936-3.83-6.354-1.277-1.105-2.711-1.77-4.114-1.979-1.3-.194-2.584.022-3.688.657-1.031.59-1.941 1.561-2.621 2.927-2.031 4.084.261 17.696 2.247 28.209a14.179 14.179 0 019.812-4.42c2.531-.09 5.085.485 7.369 1.747.411-.53.852-1.06 1.3-1.613.216-.261.433-.522.649-.792h-.009zM363.677 63.161c-1.672-3.173-3.45-6.541-5.055-9.938-5.779-2.367-8.632 2.434-9.938 9.46-.813 4.398-1.09 9.558-1.067 14.665a11.651 11.651 0 011.859-1.172c2.539-1.292 5.51-1.657 8.512-1.77 1.083-3.479 3.778-6.556 7.153-8.467-.464-.889-.956-1.823-1.464-2.778zm26.917 208.387c-.792-1.441-.261-3.255 1.18-4.047s3.255-.262 4.047 1.18a338.06 338.06 0 005.794 10.169c1.979 3.33 3.949 6.503 5.898 9.423 2.24 3.359 4.346 6.316 6.242 8.967 11.991 16.822 15.77 22.124 2.195 51.998a2.978 2.978 0 01-3.942 1.493 2.978 2.978 0 01-1.493-3.942c12.17-26.768 8.862-31.404-1.613-46.1-1.889-2.65-4.002-5.614-6.332-9.108a222.846 222.846 0 01-6.085-9.699 364.421 364.421 0 01-5.884-10.334h-.007zm45.517-45.726a7.266 7.266 0 001.911 5.07c.03.03.06.052.09.082l-.008.008.037.045a7.258 7.258 0 005.115 2.24 7.259 7.259 0 005.069-1.912c.03-.03.053-.06.082-.089l.008.007.045-.037a7.262 7.262 0 002.24-5.115 7.255 7.255 0 00-2.031-5.197 7.258 7.258 0 00-5.115-2.24 7.254 7.254 0 00-5.196 2.031 7.262 7.262 0 00-2.24 5.114l-.007-.007zm24.916-22.527a7.263 7.263 0 002.949 4.727c1.62 1.165 3.442 1.561 5.13 1.277 1.71-.292 3.322-1.299 4.51-2.957 1.239-1.732 1.747-3.786 1.508-5.682-.224-1.717-1.075-3.323-2.591-4.435-.045-.03-.082-.06-.127-.09a7.28 7.28 0 00-5.376-1.225 7.292 7.292 0 00-4.682 2.882c-.029.045-.06.082-.09.127a7.243 7.243 0 00-1.224 5.376h-.007zm49.4-97.478a8.212 8.212 0 002.644 5.757 8.215 8.215 0 005.943 2.21 8.22 8.22 0 005.757-2.644 8.217 8.217 0 002.21-5.943 8.274 8.274 0 00-2.546-5.674 2.35 2.35 0 01-.188-.172 8.266 8.266 0 00-5.854-2.128 8.219 8.219 0 00-5.757 2.643 8.229 8.229 0 00-2.21 5.943v.008zm-14.672 36.632a8.25 8.25 0 004.942 3.957 8.269 8.269 0 006.302-.709 8.253 8.253 0 003.958-4.943c.612-2.113.217-4.293-.859-6.123a9.151 9.151 0 00-5.323-4.136c-2.143-.62-4.227-.329-5.937.649-1.77 1.016-3.15 2.763-3.8 5.003a8.274 8.274 0 00.709 6.302h.008zm-15.628 33.831a7.58 7.58 0 003.905 4.323 7.633 7.633 0 005.847.299 7.578 7.578 0 004.322-3.905 7.633 7.633 0 00.299-5.847 7.581 7.581 0 00-3.904-4.323 7.633 7.633 0 00-5.847-.298 7.577 7.577 0 00-4.323 3.905 7.63 7.63 0 00-.299 5.846z"/></svg>