<svg xmlns="http://www.w3.org/2000/svg" width="450" height="450" viewBox="255 -1 450 450"><circle fill="#BFC5D9" cx="519.67" cy="128.079" r="39.039"/><path fill="#BFC5D9" d="M540.153 211.577c13.86 0 25.092 11.236 25.092 25.101 0 13.857-11.231 25.106-25.092 25.106-13.866 0-25.106-11.253-25.106-25.106.009-13.865 11.24-25.101 25.106-25.101z"/><path fill="#BFC5D9" d="M415.04 425.6h225.115s-65.318-52.505-63.942-110.073c.806-32.072 63.942-72.89 63.62-162.001-.188-44.823-43.648-119.326-117.457-128.608-73.825-9.301-129.068 6.948-153.207 52.456-24.17 45.49-25.993 85.434-24.138 92.844 1.873 7.446 9.753 21.374 9.753 21.374s-37.139 57.106-34.837 66.375c2.352 9.31 27.826 14.313 27.826 14.313s2.307 6.442-2.343 18.982c-4.65 12.544 8.642 27.091 12.638 32.171 3.929 5.076-5.586 20.881-2.352 29.725 3.248 8.799 18.574 19.479 36.212 17.168 17.651-2.335 40.298-6.487 48.16-7.903 17.75 41.785-25.048 63.177-25.048 63.177zm166.634-170.142l-7.639 11.697-7.424-4.874a36.863 36.863 0 01-12.194 8.315l1.828 8.709-13.664 2.872-1.841-8.714c-5.085.085-9.986-.86-14.502-2.737l-4.879 7.455-11.697-7.643 4.86-7.455a36.546 36.546 0 01-8.292-12.186l-8.74 1.841-2.872-13.687 8.749-1.814a36.552 36.552 0 012.706-14.493l-7.44-4.875 7.651-11.706 7.441 4.856c3.382-3.512 7.518-6.353 12.199-8.306l-1.828-8.718 13.669-2.876 1.813 8.731a36.737 36.737 0 0114.502 2.715l4.874-7.446 11.707 7.638-4.861 7.45c3.49 3.4 6.361 7.513 8.288 12.19l8.705-1.814 2.885 13.682-8.723 1.81a36.692 36.692 0 01-2.71 14.506l7.429 4.877zM453.828 101.714l13.507 3.127a56.705 56.705 0 0113.346-18.672l-7.338-11.765 18.417-11.518 7.365 11.765c7.343-2.832 15.021-4.095 22.624-3.822l3.101-13.476 21.194 4.874-3.104 13.476a57.527 57.527 0 0118.637 13.346l11.751-7.347 11.522 18.44-11.746 7.325a57.605 57.605 0 013.821 22.633l13.458 3.123-4.874 21.177-13.503-3.123a56.385 56.385 0 01-13.328 18.668l7.338 11.755-18.426 11.518-7.329-11.755c-7.37 2.849-15.053 4.108-22.655 3.821l-3.114 13.476-21.177-4.888 3.101-13.471a56.713 56.713 0 01-18.642-13.346l-11.778 7.352-11.518-18.439 11.778-7.338a57.027 57.027 0 01-3.831-22.62l-13.498-3.118 4.901-21.178z"/></svg>