<svg xmlns="http://www.w3.org/2000/svg" width="200.427" height="45.828" viewBox="0 0 200.427 45.828"><path fill="#BFC5D9" d="M110.538 15.027c.732-.92 1.872-1.395 2.716-2.196 1.376-1.313 3.628-2.63 6.069-2.066 1.504.349 2.118 1.844 2.545 3.168.476 1.475.845 3.007 1.626 4.36.669 1.163 1.56 2.224 2.45 3.221 1.668 1.872 3.732 4.029 6.148 4.9 3.165 1.139 5.482 4.351 5.65 7.724.121 2.454-1.212 6.619-4.291 6.447-.077-.006-.157-.009-.233-.026.398.089.809.136 1.176.329.493.256 1.083 1.557.644 2.02-.349.37-1.952.195-2.383.217-3.441.188-13.082 0-13.082 0s-.437-1.875 1.566-2.001c2.002-.125 4.13 0 4.381-.815.25-.812-1.69-.438-3.13-1.439-1.439-1.001-1.19-4.318-1.19-4.318s-1.877 8.18-3.254 8.657c-1.376.481-2.879.397-2.879 0 0-.396 1.377-1.146 1.752-2.272.376-1.127 1.253-4.507.313-5.258-1.815-1.451-3.796-3.497-4.274-5.855-.566-2.785 1.931-5.3 1.835-8.102-.021-.602-.119-3.074-1.19-2.879-.688.125-3.442-.565-3.505-2.067-.031-.754.185-1.299.54-1.749z"/><path fill="#BFC5D9" d="M120.075 11.955s3.903-2.003 3.797-4.819c-.104-2.817-.918-4.194-.981-5.51C122.828.312 122.828 0 122.828 0s-2.126 2.002-2.188 4.756c-.062 2.753 0 4.694-.564 5.883-.563 1.19-.377 1.879-.377 1.879l.376-.563z"/><path fill="#BFC5D9" d="M118.172 12.326s3.119-3.081 2.175-5.737c-.946-2.656-2.137-3.725-2.59-4.96-.455-1.233-.549-1.533-.549-1.533s-1.428 2.55-.66 5.196c.767 2.646 1.408 4.478 1.229 5.779-.18 1.306.205 1.904.205 1.904l.19-.649z"/><circle fill="#BFC5D9" cx="138.258" cy="33.142" r="2.66"/><g><path fill="#BFC5D9" d="M91.037 15.027c-.729-.92-1.872-1.395-2.712-2.196-1.377-1.313-3.63-2.63-6.071-2.066-1.504.349-2.116 1.844-2.545 3.168-.476 1.475-.845 3.007-1.624 4.36-.669 1.163-1.562 2.224-2.45 3.221-1.67 1.872-3.733 4.029-6.148 4.9-3.167 1.139-5.482 4.351-5.649 7.724-.124 2.454 1.209 6.619 4.288 6.447.079-.006.157-.009.232-.026-.397.089-.806.136-1.175.329-.491.256-1.082 1.557-.642 2.02.349.37 1.95.195 2.381.217 3.443.188 13.081 0 13.081 0s.439-1.875-1.565-2.001c-2.002-.125-4.13 0-4.381-.815-.249-.812 1.69-.438 3.13-1.439 1.439-1.001 1.188-4.318 1.188-4.318s1.879 8.18 3.256 8.657c1.376.481 2.879.397 2.879 0 0-.396-1.377-1.146-1.752-2.272-.376-1.127-1.253-4.507-.313-5.258 1.816-1.451 3.796-3.497 4.275-5.855.567-2.785-1.932-5.3-1.834-8.102.021-.602.117-3.074 1.188-2.879.688.125 3.444-.565 3.507-2.067.031-.754-.186-1.299-.544-1.749z"/><path fill="#BFC5D9" d="M81.503 11.955s-3.902-2.003-3.798-4.819c.104-2.817.919-4.194.981-5.51C78.749.312 78.749 0 78.749 0s2.128 2.002 2.19 4.756c.063 2.753 0 4.694.563 5.883.562 1.19.374 1.879.374 1.879l-.373-.563z"/><path fill="#BFC5D9" d="M83.407 12.326s-3.121-3.081-2.175-5.737c.944-2.656 2.135-3.725 2.59-4.96.453-1.233.547-1.533.547-1.533s1.43 2.55.662 5.196c-.767 2.646-1.409 4.478-1.229 5.779.181 1.306-.206 1.904-.206 1.904l-.189-.649z"/><circle fill="#BFC5D9" cx="63.32" cy="33.142" r="2.659"/></g><g><path fill="#BFC5D9" d="M22.285 36.865c.084.055.163.113.236.177.498.431.594 1.326.178 1.837-.659.81-1.722.147-2.246-.456-.654-.753-1.273-3.087-1.273-3.087.113.426.668.57 1.022.706.637.243 1.481.431 2.083.823z"/><path fill="#BFC5D9" d="M45.473 45.275c-.242 0-.491-.013-.743-.04-1.247-.132-2.107-1.005-2.423-2.458-.539-2.48.605-6.435 2.844-8.833-2.485-2.632-5.005-3.415-8.498-1.328-1.209.723-2.416 1.525-3.584 2.301-3.68 2.445-7.485 4.974-12.109 5.571-4.656.595-9.606-1.477-12.614-5.292-1.439-1.826-2.711-5.103-2.102-7.979.364-1.716 1.358-3.046 2.875-3.848 1.857-.979 4.698-1.416 6.537-.354a4.125 4.125 0 012.034 3.792c-.08 1.353-.841 2.435-2.088 2.969-.876.376-1.799.21-2.533-.453-.82-.742-1.205-1.953-.914-2.878.244-.775.902-1.269 1.854-1.39a.395.395 0 11.1.786c-.646.082-1.049.365-1.199.842-.199.634.098 1.516.69 2.052.29.263.896.654 1.689.312.961-.412 1.547-1.245 1.609-2.287.071-1.222-.587-2.451-1.641-3.059-1.573-.908-4.146-.487-5.771.369-1.321.697-2.151 1.812-2.47 3.311-.557 2.628.62 5.639 1.948 7.324 2.839 3.602 7.508 5.566 11.891 4.996 4.44-.573 8.168-3.05 11.772-5.444 1.176-.781 2.392-1.589 3.616-2.32 4.139-2.474 7.062-1.134 9.485 1.442a6.753 6.753 0 011.018-.743c1.279-.756 2.531-.947 3.718-.567 2.325.744 3.532 3.409 3.583 3.522a.396.396 0 01-.724.322c-.011-.024-1.118-2.458-3.104-3.091-.963-.305-1.995-.139-3.069.496a6.024 6.024 0 00-.892.651c.771.9 1.494 1.912 2.195 2.946 2.241 3.307 1.608 5.413 1.031 6.373-.759 1.272-2.229 1.987-4.011 1.987zm.211-10.738c-2.002 2.19-3.091 5.827-2.603 8.072.244 1.123.826 1.742 1.731 1.838 1.8.19 3.293-.395 3.995-1.565.828-1.38.47-3.34-1.008-5.521-.721-1.065-1.42-2.014-2.115-2.824z"/><path fill="#BFC5D9" d="M23.99 39.336c-.933 0-2.251-.858-2.308-.896a.113.113 0 01-.032-.156.114.114 0 01.156-.032c.013.009 1.319.858 2.184.858.009 0 .017-.002.026 0 .062 0 .111.049.113.11a.114.114 0 01-.11.115l-.029.001zM5.673 24.4c.07.101.134.206.188.314.376.741.114 1.96-.556 2.495-1.061.848-1.966-.394-2.299-1.373-.416-1.221-.146-4.526-.146-4.526-.049.603.506.984.843 1.285.607.542 1.464 1.079 1.97 1.805z"/><path fill="#BFC5D9" d="M6.624 28.26a.132.132 0 01-.039-.006c-1.052-.299-2.188-1.926-2.235-1.995a.143.143 0 01.235-.162c.011.016 1.125 1.612 2.078 1.883.076.021.12.101.099.177a.143.143 0 01-.138.103zM31.179 31.797c.977.659 1.441 1.676 1.04 2.271s-1.519.543-2.495-.116c-.976-.659-1.831-2.806-1.831-2.806s2.31-.008 3.286.651z"/><path fill="#BFC5D9" d="M33.094 34.799a.138.138 0 01-.078-.024l-2.448-1.652a.14.14 0 01-.038-.194.141.141 0 01.194-.038l2.448 1.652a.14.14 0 01-.078.256zM30.521 38.708c.104-1.394.876-2.473 1.727-2.41.85.062 1.455 1.244 1.352 2.639s-1.81 3.54-1.81 3.54-1.372-2.374-1.269-3.769z"/><path fill="#BFC5D9" d="M32.08 38.711h-.012a.167.167 0 01-.153-.179l.259-3.496c.007-.091.078-.167.178-.153.092.007.16.087.153.179l-.259 3.495a.166.166 0 01-.166.154zM19.749 41.592c.753-.866 1.768-1.216 2.268-.782.501.435.296 1.489-.457 2.355-.752.866-2.877 1.483-2.877 1.483s.313-2.19 1.066-3.056z"/><path fill="#BFC5D9" d="M20.805 42.339a.131.131 0 01-.087-.033.132.132 0 01-.014-.187l1.887-2.172a.133.133 0 01.188-.014.134.134 0 01.013.188l-1.887 2.172a.134.134 0 01-.1.046zM36.88 28.746c-.473 0-.915-.074-1.324-.224-1.134-.414-1.989-1.389-2.544-2.897-1.138-3.097 1.177-8.928 1.275-9.175a.395.395 0 01.552-.203c.235.124 5.774 3.068 6.913 6.165.555 1.509.534 2.806-.062 3.855-.508.893-1.424 1.588-2.724 2.065-.746.276-1.445.414-2.086.414zm-2.016-11.579c-.504 1.382-1.978 5.819-1.108 8.185.471 1.28 1.167 2.097 2.071 2.426.784.286 1.75.224 2.868-.188 1.118-.41 1.895-.987 2.307-1.713.475-.837.478-1.91.007-3.19-.87-2.369-4.867-4.793-6.145-5.52z"/><path fill="#BFC5D9" d="M39.928 31.339a.396.396 0 01-.375-.269c-.343-1.007-.911-2.616-1.072-2.926a.39.39 0 01-.036-.266c.012-.059 1.163-5.845-4.067-10.999a.396.396 0 11.557-.564c5.163 5.088 4.477 10.637 4.312 11.593.291.661.975 2.663 1.058 2.906a.398.398 0 01-.377.525z"/><path fill="#BFC5D9" d="M38.739 28.104a.385.385 0 01-.234-.078c-.204-.154-4.981-3.84-4.24-11.466a.398.398 0 01.429-.353.393.393 0 01.352.429c-.697 7.171 3.885 10.729 3.932 10.764a.392.392 0 01-.239.704zM6.091 45.828c-2.604 0-5.696-1.26-5.864-1.329a.366.366 0 01-.202-.47c.092-.239 2.27-5.875 4.859-7.133 1.096-.533 2.087-.629 2.949-.287.985.39 1.772 1.341 2.339 2.825 1.062 2.779.382 4.851-1.963 5.989-.602.293-1.338.405-2.118.405zM.846 43.953c1.172.437 5.08 1.763 7.042.812 1.979-.961 2.517-2.666 1.6-5.068-.49-1.285-1.138-2.094-1.924-2.405-.663-.263-1.456-.173-2.358.265-1.996.967-3.852 5.167-4.36 6.396z"/><path fill="#BFC5D9" d="M.366 44.527a.367.367 0 01-.292-.588c4.01-5.31 8.774-4.894 9.683-4.758.574-.326 2.204-1.064 2.404-1.155a.366.366 0 11.302.668c-.807.364-2.179 1.005-2.429 1.175a.375.375 0 01-.278.056c-.204-.043-5.03-.929-9.098 4.457a.362.362 0 01-.292.145z"/><path fill="#BFC5D9" d="M1.171 44.551c-.27 0-.546-.009-.829-.028a.363.363 0 11.05-.724c6.164.43 8.889-4.264 8.916-4.312a.362.362 0 11.63.357c-.028.051-2.743 4.707-8.767 4.707z"/><g><circle fill="#BFC5D9" cx="14.395" cy="25.567" r=".854"/></g><g><circle fill="#BFC5D9" cx="53.688" cy="35.752" r=".854"/></g><g><path fill="#BFC5D9" d="M178.142 36.865a2.187 2.187 0 00-.235.177c-.498.431-.594 1.326-.178 1.837.658.81 1.721.147 2.246-.456.653-.753 1.272-3.087 1.272-3.087-.113.426-.668.57-1.021.706-.638.243-1.482.431-2.084.823z"/><path fill="#BFC5D9" d="M150.939 43.289c-.576-.96-1.209-3.066 1.032-6.373.7-1.034 1.424-2.046 2.195-2.946a5.903 5.903 0 00-.892-.651c-1.075-.635-2.106-.801-3.07-.496-1.985.633-3.092 3.066-3.104 3.091a.396.396 0 01-.723-.322c.05-.113 1.257-2.778 3.583-3.522 1.187-.38 2.438-.188 3.717.567.357.211.697.461 1.019.743 2.423-2.576 5.346-3.916 9.485-1.442 1.225.731 2.44 1.539 3.616 2.32 3.604 2.395 7.332 4.871 11.771 5.444 4.383.57 9.052-1.395 11.891-4.996 1.329-1.686 2.505-4.696 1.948-7.324-.317-1.499-1.148-2.613-2.47-3.311-1.624-.856-4.197-1.277-5.77-.369-1.054.607-1.713 1.837-1.641 3.059.062 1.042.648 1.875 1.608 2.287.795.342 1.399-.05 1.69-.312.593-.536.889-1.418.689-2.052-.149-.477-.553-.76-1.198-.842a.397.397 0 01-.344-.442.401.401 0 01.443-.344c.952.121 1.611.614 1.855 1.39.29.925-.094 2.136-.915 2.878-.733.663-1.657.829-2.533.453-1.246-.534-2.008-1.616-2.088-2.969a4.124 4.124 0 012.035-3.792c1.838-1.062 4.68-.625 6.536.354 1.518.802 2.512 2.132 2.875 3.848.61 2.877-.662 6.153-2.102 7.979-3.008 3.815-7.957 5.887-12.614 5.292-4.623-.598-8.429-3.126-12.109-5.571-1.168-.775-2.375-1.578-3.583-2.301-3.493-2.087-6.014-1.304-8.498 1.328 2.238 2.398 3.383 6.353 2.844 8.833-.316 1.453-1.176 2.326-2.423 2.458-.253.027-.501.04-.743.04-1.779-.001-3.249-.716-4.012-1.987zm1.689-5.929c-1.479 2.182-1.836 4.142-1.009 5.521.702 1.171 2.196 1.756 3.995 1.565.905-.096 1.488-.715 1.732-1.838.488-2.245-.601-5.882-2.603-8.072-.695.811-1.393 1.76-2.115 2.824z"/><path fill="#BFC5D9" d="M176.437 39.336c.933 0 2.252-.858 2.309-.896a.113.113 0 00.032-.156.114.114 0 00-.156-.032c-.014.009-1.319.858-2.185.858-.009 0-.016-.002-.026 0a.112.112 0 00-.112.11.113.113 0 00.11.115.253.253 0 00.028.001zM194.755 24.4c-.07.101-.135.206-.189.314-.375.741-.114 1.96.556 2.495 1.062.848 1.966-.394 2.3-1.373.416-1.221.145-4.526.145-4.526.05.603-.506.984-.842 1.285-.607.542-1.464 1.079-1.97 1.805z"/><path fill="#BFC5D9" d="M193.803 28.26a.132.132 0 00.039-.006c1.052-.299 2.188-1.926 2.235-1.995a.142.142 0 00-.036-.198.143.143 0 00-.198.036c-.012.016-1.126 1.612-2.079 1.883a.144.144 0 00-.098.177.143.143 0 00.137.103zM169.248 31.797c-.976.659-1.441 1.676-1.04 2.271.402.595 1.52.543 2.495-.116.977-.659 1.831-2.806 1.831-2.806s-2.309-.008-3.286.651z"/><path fill="#BFC5D9" d="M167.334 34.799a.14.14 0 00.078-.024l2.447-1.652a.14.14 0 00.038-.194.141.141 0 00-.194-.038l-2.447 1.652a.14.14 0 00.078.256zM169.906 38.708c-.104-1.394-.876-2.473-1.726-2.41s-1.455 1.244-1.353 2.639c.104 1.395 1.811 3.54 1.811 3.54s1.372-2.374 1.268-3.769z"/><path fill="#BFC5D9" d="M168.347 38.711h.013a.167.167 0 00.153-.179l-.259-3.496c-.007-.091-.079-.167-.179-.153a.166.166 0 00-.152.179l.259 3.495a.165.165 0 00.165.154zM180.678 41.592c-.752-.866-1.768-1.216-2.268-.782-.5.435-.296 1.489.457 2.355s2.878 1.483 2.878 1.483-.314-2.19-1.067-3.056z"/><path fill="#BFC5D9" d="M179.623 42.339a.133.133 0 00.1-.22l-1.887-2.172a.133.133 0 00-.201.174l1.887 2.172c.027.03.064.046.101.046zM161.459 28.333c-1.299-.478-2.216-1.173-2.723-2.065-.596-1.05-.616-2.347-.062-3.855 1.139-3.097 6.679-6.041 6.914-6.165a.396.396 0 01.551.203c.1.247 2.413 6.078 1.275 9.175-.555 1.509-1.41 2.483-2.543 2.897a3.85 3.85 0 01-1.324.224c-.642-.001-1.339-.139-2.088-.414zm-2.041-5.647c-.471 1.28-.468 2.354.008 3.19.412.726 1.188 1.303 2.307 1.713 1.118.412 2.083.475 2.867.188.904-.329 1.601-1.146 2.071-2.426.87-2.365-.604-6.803-1.107-8.185-1.279.728-5.276 3.152-6.146 5.52z"/><path fill="#BFC5D9" d="M160.5 31.339a.397.397 0 00.375-.269c.343-1.007.911-2.616 1.072-2.926a.402.402 0 00.036-.266c-.013-.059-1.164-5.845 4.067-10.999a.397.397 0 00-.557-.564c-5.164 5.088-4.477 10.637-4.312 11.593-.292.661-.976 2.663-1.058 2.906a.396.396 0 00.377.525z"/><path fill="#BFC5D9" d="M161.688 28.104a.39.39 0 00.235-.078c.203-.154 4.98-3.84 4.239-11.466a.397.397 0 00-.428-.353.393.393 0 00-.353.429c.697 7.171-3.885 10.729-3.931 10.764a.391.391 0 00.238.704zM192.219 45.424c-2.346-1.139-3.024-3.21-1.964-5.989.567-1.484 1.354-2.436 2.339-2.825.863-.342 1.854-.246 2.949.287 2.59 1.258 4.769 6.894 4.86 7.133a.368.368 0 01-.203.47c-.168.069-3.26 1.329-5.864 1.329-.779-.001-1.517-.113-2.117-.405zm3.004-7.868c-.902-.438-1.696-.527-2.358-.265-.786.312-1.434 1.12-1.924 2.405-.918 2.402-.38 4.107 1.599 5.068 1.962.951 5.871-.375 7.043-.812-.51-1.228-2.365-5.428-4.36-6.396z"/><path fill="#BFC5D9" d="M200.061 44.527a.367.367 0 00.293-.588c-4.01-5.31-8.775-4.894-9.683-4.758-.574-.326-2.205-1.064-2.405-1.155a.367.367 0 10-.301.668c.806.364 2.179 1.005 2.428 1.175a.376.376 0 00.278.056c.204-.043 5.031-.929 9.098 4.457a.364.364 0 00.292.145z"/><path fill="#BFC5D9" d="M199.256 44.551c.271 0 .546-.009.829-.028a.363.363 0 00-.049-.724c-6.164.43-8.89-4.264-8.916-4.312a.362.362 0 10-.631.357c.029.051 2.742 4.707 8.767 4.707z"/><g><circle fill="#BFC5D9" cx="186.033" cy="25.567" r=".854"/></g><g><circle fill="#BFC5D9" cx="146.74" cy="35.752" r=".854"/></g></g></g></svg>