<svg xmlns="http://www.w3.org/2000/svg" width="167.426" height="16.188" viewBox="0 0 167.426 16.188"><path fill="#BFC5D9" d="M163.19 7.445c-1.635.053-2.982-.597-3.011-1.451s1.275-1.591 2.91-1.644c1.635-.054 4.336 1.407 4.336 1.407s-2.599 1.635-4.235 1.688zM88.907 5.516h66.563v.766H88.907z"/><path fill="#BFC5D9" d="M156.635 15.87a3.754 3.754 0 01-3.739-3.505 3.056 3.056 0 01.758-2.229 3.053 3.053 0 012.111-1.041c1.4-.096 2.606.97 2.697 2.366a2.108 2.108 0 01-1.965 2.239.377.377 0 01-.407-.356.382.382 0 01.357-.407 1.343 1.343 0 001.25-1.426 1.77 1.77 0 00-1.883-1.652 2.294 2.294 0 00-1.586.781 2.3 2.3 0 00-.568 1.674 2.985 2.985 0 003.172 2.782 3.829 3.829 0 003.566-4.066 4.883 4.883 0 00-5.184-4.547.379.379 0 01-.408-.357.382.382 0 01.357-.407 5.647 5.647 0 015.999 5.262 4.597 4.597 0 01-4.527 4.889z"/><path fill="#BFC5D9" d="M156.731 6.1c-.168 0-.337-.013-.508-.038a.384.384 0 01.115-.758 2.635 2.635 0 002.994-2.213 2.033 2.033 0 00-1.706-2.308 1.55 1.55 0 00-1.759 1.3c-.046.307.03.613.214.862.185.25.455.412.762.458a.842.842 0 00.633-.157.84.84 0 00.336-.559.604.604 0 00-.508-.688.382.382 0 01-.322-.436.385.385 0 01.436-.322 1.372 1.372 0 011.152 1.561c-.064.427-.291.804-.639 1.061s-.773.362-1.202.299a1.917 1.917 0 01-1.264-.761 1.912 1.912 0 01-.355-1.432 2.317 2.317 0 012.631-1.943c.738.111 1.39.503 1.833 1.104s.627 1.338.517 2.076a3.407 3.407 0 01-3.36 2.894z"/><circle fill="#BFC5D9" cx="155.659" cy="5.859" r=".989"/><g><path fill="#BFC5D9" d="M4.235 7.762c1.635.054 2.983-.596 3.011-1.45s-1.275-1.591-2.91-1.645C2.701 4.614 0 6.074 0 6.074s2.6 1.634 4.235 1.688zM11.955 5.832h66.563v.767H11.955z"/><path fill="#BFC5D9" d="M10.794 16.188a4.556 4.556 0 01-3.401-1.562 4.56 4.56 0 01-1.129-3.327 5.605 5.605 0 011.909-3.874 5.59 5.59 0 014.089-1.389c.211.014.371.196.357.407s-.19.377-.407.357A4.854 4.854 0 008.678 8a4.845 4.845 0 00-1.65 3.348 3.801 3.801 0 00.941 2.771 3.796 3.796 0 002.625 1.295 2.989 2.989 0 002.162-.734 2.963 2.963 0 001.009-2.048 2.313 2.313 0 00-2.154-2.456 1.783 1.783 0 00-1.883 1.652 1.343 1.343 0 001.25 1.425.383.383 0 01.357.407.376.376 0 01-.407.357 2.108 2.108 0 01-1.964-2.239 2.536 2.536 0 012.697-2.366c.82.053 1.57.423 2.111 1.04.542.618.811 1.41.757 2.229a3.723 3.723 0 01-1.269 2.574 3.714 3.714 0 01-2.466.933z"/><path fill="#BFC5D9" d="M10.69 6.417a3.374 3.374 0 01-2.013-.666 3.375 3.375 0 01-1.341-2.229 2.775 2.775 0 01.517-2.076A2.774 2.774 0 019.686.342a2.316 2.316 0 012.631 1.943c.076.51-.05 1.018-.356 1.432a1.913 1.913 0 01-1.264.76 1.596 1.596 0 01-1.202-.297 1.607 1.607 0 01-.639-1.062c-.054-.362.036-.723.253-1.018s.537-.486.899-.541a.381.381 0 01.436.322.384.384 0 01-.322.436.594.594 0 00-.396.238.598.598 0 00-.112.449.85.85 0 00.969.717 1.163 1.163 0 00.976-1.32 1.548 1.548 0 00-1.759-1.3 2.03 2.03 0 00-1.706 2.307 2.638 2.638 0 002.994 2.213.385.385 0 01.436.321.384.384 0 01-.322.436 3.425 3.425 0 01-.512.039z"/><circle fill="#BFC5D9" cx="11.767" cy="6.176" r=".99"/></g><g><path fill="#BFC5D9" d="M83.601 9.776a.382.382 0 01-.271-.112c-.3-.3-.618-.597-.939-.897-.785-.734-1.596-1.493-2.213-2.351l-.012-.016c-.289-.449.156-.914 2.038-2.552.394-.343.876-.763 1.02-.924a.383.383 0 01.636-.156l.729.725c.49.486.979.972 1.46 1.465l.218.221c.812.82.822 1.044.091 1.991-.482.626-1.061 1.158-1.62 1.672-.293.27-.586.538-.864.82a.383.383 0 01-.273.114zM80.91 6.118c.562.739 1.294 1.425 2.004 2.089.232.217.462.433.685.648.203-.195.411-.387.619-.577.561-.516 1.09-1.002 1.532-1.575.169-.22.361-.47.375-.548-.021-.051-.216-.247-.404-.437l-.221-.226c-.478-.49-.964-.973-1.45-1.454l-.429-.427c-.189.182-.478.436-.914.815-.55.479-1.528 1.331-1.797 1.692z"/></g></svg>