<svg xmlns="http://www.w3.org/2000/svg" width="774.399" height="155.001" viewBox="0 0 774.399 155.001"><path fill="#545D8C" d="M755.994 33.543H563.111c-10.163 0-18.405 6.804-18.405 15.191v52.458c0 8.386 8.242 15.19 18.405 15.19h192.883c10.164 0 18.405-6.805 18.405-15.19V48.734c0-8.387-8.241-15.191-18.405-15.191z"/><path fill="#D9C873" d="M188.299 91.642c-3.978 3.198-9.126 5.069-14.665 5.069-13.183 0-23.947-10.686-23.947-23.946s10.764-23.947 23.947-23.947c5.538 0 10.53 1.872 14.665 4.992 0 3.198.234 10.062.234 14.119h-1.872c-.78-4.057-5.85-9.049-13.026-9.049-7.644 0-13.884 6.24-13.884 13.885s6.24 13.885 13.884 13.885c7.176 0 12.325-4.446 13.026-8.971h1.872l-.234 13.963zm65.052 4.055c-1.248 0-2.808-.156-3.744-.156H238.92l-18.097-18.096h-.936v12.636c0 3.042.78 3.511 2.964 3.744h.546l.39 1.872h-.624c-1.248 0-2.809-.156-3.744-.156h-9.984c-.937 0-2.496.156-3.744.156h-.624l.39-1.872h.546c2.185-.233 2.964-.702 2.964-3.744V55.448c0-3.042-.78-3.51-2.964-3.744h-.546l-.39-1.872h.624c1.248 0 2.808.156 3.744.156h9.984c.936 0 3.744-.156 4.836-.156 7.645 0 13.807 6.162 13.807 13.729 0 4.602-2.184 8.58-5.538 11.076l15.366 15.444c3.354 3.276 3.744 3.589 5.148 3.744.234.078.546 0 .546 0l.468 1.872h-.701zM222.54 57.632h-2.652v11.856h2.652c3.198 0 5.928-2.652 5.928-5.928-.001-3.198-2.731-5.928-5.928-5.928zm92.976-5.928h-.624c-2.185.234-2.886.702-2.886 3.744v17.316c0 13.261-10.765 23.946-23.947 23.946-13.261 0-24.025-10.686-24.025-23.946V55.448c0-3.042-.702-3.51-2.886-3.744h-.546l-.468-1.872h.702c1.248 0 2.808.156 3.744.156h9.984c.936 0 2.496-.156 3.744-.156h.702l-.468 1.872h-.546c-2.184.234-2.964.702-2.964 3.744v17.16c0 7.177 5.85 13.026 13.027 13.026 7.176 0 12.948-5.85 12.948-13.026v-17.16c0-3.042-.78-3.51-2.964-3.744h-.546l-.39-1.872h.624c1.248 0 2.809.156 3.744.156h9.984c.937 0 2.496-.156 3.744-.156h.702l-.389 1.872zm32.68 44.93c-5.539 0-10.219-1.716-13.417-5.616 0-2.262-.078-8.893-.078-11.154l1.95-.078c1.561 5.07 5.772 7.488 10.219 7.488 2.964 0 5.148-1.639 5.148-3.822 0-2.34-1.326-3.744-4.368-5.383l-4.914-2.964c-5.616-3.354-7.8-7.176-7.8-12.714 0-6.942 4.68-13.26 14.586-13.26 4.602 0 7.8 1.17 10.062 2.886 0 2.964-.078 5.929-.078 9.829l-1.716.39c-.936-2.73-3.51-4.758-7.098-4.758-2.964 0-5.382 1.56-5.382 3.9 0 1.872.78 2.964 3.744 4.681l6.318 3.822c4.524 2.73 7.801 6.318 7.801 12.871-.001 8.967-7.957 13.882-14.977 13.882zm83.07-3.901c-1.014.546-2.574 1.092-3.354 1.56l-8.814 4.681c-.78.468-2.028 1.326-3.198 1.95l-.624.312-.468-1.873.468-.233c1.872-1.248 2.184-2.106.858-4.759l-2.106-4.29h-21.139l-2.106 4.29c-1.326 2.574-1.014 3.511.78 4.759.234.077.546.233.546.233l-.546 1.873-.624-.312c-1.092-.624-2.34-1.482-3.12-1.95l-8.814-4.681c-.858-.468-2.34-1.014-3.354-1.56l-.624-.312 1.248-1.482s.312.156.468.312c2.028.701 2.964.701 4.368-2.029l22.309-41.887 22.387 41.887c1.404 2.73 2.262 2.73 4.368 2.029.156-.156.468-.312.468-.312l1.248 1.482-.625.312zM403.419 68.63l-5.772 11.779h11.623l-5.851-11.779zm59.123 27.224c-3.433 0-7.488-.312-7.488-.312h-6.553c-.936 0-2.496.156-3.744.156h-.624l.391-1.872h.546c2.184-.233 2.964-.702 2.964-3.744V55.448c0-3.042-.78-3.51-2.964-3.744h-.546l-.391-1.872h.624c1.248 0 2.809.156 3.744.156h5.305s5.382-.312 8.736-.312c12.714 0 23.089 10.375 23.089 23.089 0 12.714-10.375 23.089-23.089 23.089zm-.936-36.896h-2.652v27.613h2.652c7.566 0 13.729-6.162 13.729-13.807s-6.163-13.806-13.729-13.806zm73.71 40.094v-.546c-.233-2.185-.779-2.965-3.821-2.965h-14.197l-8.736 7.879V77.445c-2.808.078-3.354.78-3.588 2.964v.546l-1.872.39v-.624c0-1.248.156-2.808.156-3.744v-8.424c0-.937-.156-2.496-.156-3.744v-.702l1.872.39v.624c.234 2.106.78 2.809 3.588 2.886V49.988h22.934c3.042 0 3.588-.78 3.821-2.964v-.546l1.872-.39v.624c0 1.248-.233 2.808-.233 3.744v9.048c0 .702.155 1.716.155 2.73l-2.027-.546c-.391-1.248-1.248-1.638-3.588-1.638h-12.013v7.956h12.013c3.042 0 3.588-1.092 3.821-2.262.078-.312 0-.624 0-.624l1.872-.39v.702c0 1.248-.233 2.808-.233 3.744v7.8c0 .937.233 1.872.233 3.12v.624l-1.872-.39s.078-.312 0-.546c-.233-1.482-.779-2.34-3.821-2.34h-12.013v8.034h12.013c2.34 0 3.197-.39 3.588-1.638l2.027-.546c0 1.014-.155 2.028-.155 2.73v9.048c0 .937.233 2.496.233 3.744v.624l-1.873-.388zm24.569-1.405l-7.488-7.488 7.488-7.488 7.488 7.488-7.488 7.488zm51.792 1.405v-.546c-.234-2.185-.78-2.965-3.822-2.965h-14.274l-8.736 7.879V55.448c0-3.042-.78-3.51-2.964-3.744h-.546l-.391-1.872h.624c1.248 0 2.809.156 3.744.156h9.984c.937 0 2.496-.156 3.744-.156h.624l-.39 1.872h-.546c-2.185.234-2.965.702-2.965 3.744v29.173h12.091c3.042 0 3.588-.78 3.822-2.964v-.546l1.872-.391v.624c0 1.248-.156 2.809-.156 3.744v9.984c0 .937.156 2.496.156 3.744v.624l-1.871-.388zm35.41-3.355c-1.248 0-2.808-.156-3.744-.156h-9.984c-.936 0-2.496.156-3.744.156h-.624l.391-1.872h.546c2.184-.233 2.964-.702 2.964-3.744V55.448c0-3.042-.78-3.51-2.964-3.744h-.546l-.391-1.872h.624c1.248 0 2.809.156 3.744.156h9.984c.937 0 2.496-.156 3.744-.156h.624l-.39 1.872h-.546c-2.185.234-2.965.702-2.965 3.744v34.633c0 3.042.78 3.511 2.965 3.744h.546l.39 1.872h-.624zm68.329-43.993h-.624c-2.184.234-2.496.858-3.822 3.432l-22.387 42.668-22.465-42.668c-1.248-2.574-1.56-3.198-3.822-3.432h-.546l-.468-1.872h.702c1.248 0 2.808.156 3.744.156h11.778c.936 0 2.496-.156 3.744-.156h.702l-.468 1.872h-.547c-2.184.234-3.275 1.56-2.027 3.9l9.672 18.876 9.673-18.876c1.17-2.34.078-3.666-2.106-3.9h-.546l-.468-1.872h.702c1.248 0 2.808.156 3.744.156h11.778c.936 0 2.496-.156 3.744-.156h.702l-.389 1.872zM760.5 99.052v-.546c-.233-2.185-.779-2.965-3.821-2.965h-14.197l-8.736 7.879V77.445c-2.808.078-3.354.78-3.588 2.964v.546l-1.872.39v-.624c0-1.248.156-2.808.156-3.744v-8.424c0-.937-.156-2.496-.156-3.744v-.702l1.872.39v.624c.234 2.106.78 2.809 3.588 2.886V49.988h22.934c3.042 0 3.588-.78 3.821-2.964v-.546l1.872-.39v.624c0 1.248-.233 2.808-.233 3.744v9.048c0 .702.155 1.716.155 2.73l-2.027-.546c-.391-1.248-1.248-1.638-3.588-1.638h-12.013v7.956h12.013c3.042 0 3.588-1.092 3.821-2.262.078-.312 0-.624 0-.624l1.872-.39v.702c0 1.248-.233 2.808-.233 3.744v7.8c0 .937.233 1.872.233 3.12v.624l-1.872-.39s.078-.312 0-.546c-.233-1.482-.779-2.34-3.821-2.34h-12.013v8.034h12.013c2.34 0 3.197-.39 3.588-1.638l2.027-.546c0 1.014-.155 2.028-.155 2.73v9.048c0 .937.233 2.496.233 3.744v.624l-1.873-.388z"/><path fill="#E5D17C" d="M11.834 21.739l8.207 3.769v4.628l-8.206 3.77-.001-12.167zm23.671 1.334l8.206-3.77v-4.628l-8.207-3.768.001 12.166zm43.394 68.138l39.452-10.479-8.207-3.769-39.452 10.479 8.207 3.769zm-39.446 11.34l19.723 9.057-19.723-9.057zm19.722 9.056v-7.593l-11.517-5.298-8.206 3.814 19.723 9.077zm-19.722-9.056l19.723 9.057-19.723-9.057z"/><path fill="#D9C873" d="M39.452 61.887l8.207 3.833v32.997l-8.206 3.814-.001-40.644zm39.447 29.318v11.326l-19.724 9.057-19.723-9.057V61.887l19.723-9.057 19.724 9.057v13.755l39.452-10.479V27.174l-11.836-5.435v12.167l-11.833-5.437V16.305l-11.836-5.434v12.202l-11.835-5.434V5.435L59.175 0 47.34 5.435V17.64l-11.836 5.434V10.871l-11.836 5.434v12.164l-11.833 5.437V21.739L0 27.174v100.653l59.175 27.174 59.176-27.174V80.726L78.899 91.205z"/><path fill="#C6B56F" d="M78.899 61.887l-8.206 3.833-11.586-5.33.069-7.56 19.723 9.057zm0 0L59.175 52.83l19.724 9.057zm0 0L59.175 52.83l19.724 9.057zm-19.724 49.72l19.724-9.057-19.724 9.057zm19.724-9.076l-8.206-3.814-11.517 5.298v7.593l19.723-9.077zm-19.724 9.076l19.724-9.057-19.724 9.057zm-19.722-49.72l19.723-9.057V0L47.34 5.435V17.64l-11.836 5.434V10.871l-11.836 5.434v12.164l-11.833 5.437V21.739L0 27.174v100.653l59.175 27.174v-43.413l-19.723-9.057V61.887z"/><path fill="#998C53" d="M106.515 33.906l-8.205-3.77v-4.628l8.207-3.769-.002 12.167zM82.846 10.907l-8.207 3.768v4.628l8.206 3.77.001-12.166zm-3.948 64.739l.001-13.759-8.207 3.833v6.158l8.206 3.768zm.001 15.565l-8.207-3.769v11.274l8.206 3.814.001-11.319zM59.175 52.83l-19.723 9.057 19.723-9.057zm-19.723 9.057l8.207 3.833 11.517-5.297V52.83l-19.724 9.057zm19.723-9.057l-19.723 9.057 19.723-9.057z"/></svg>