<svg xmlns="http://www.w3.org/2000/svg" width="735.734" height="135.138" viewBox="0 0 735.734 135.138"><g fill="#BFC5D9"><path d="M423.417 31.621c.759.131 2.629-4.261 2.755-4.636 1.44-4.358-1.126-8.35-4.646-11.721-1.137-1.092-3.007-3.122-5.034-3.458-1.539-.23-8.543 17.116-3.488 17.996-.001.001 10.402 1.816 10.413 1.819zM454.962 122.499s9.365 4.913 20.376 2.572c20.335-4.322 32.456-35.5 24.128-53.404-7.491-16.087-20.849-27.587-29.397-42.671-5.112-9.025-2.247-20.17 2.227-28.996-1.236 2.436-17.789 6.956-21.241 9.274-7.213 4.851-13.641 11.626-14.536 20.659-.503 5.103.403 18.434 3.981 22.708.256.301 1.268 2.797 1.817 1.229l12.645 68.629z"/><path d="M413.271 22.951s-11.006 1.171-15.694 7.729c-4.683 6.559-7.496 15.458-5.62 16.865 1.875 1.406 10.309 4.45 16.396 5.856 6.092 1.404.723 1.103.723 1.103s-15.243-1.338-18.994.301c-3.745 1.64-5.385 5.623-2.808 6.089 2.577.469 1.404-2.105 6.087 0 4.688 2.108 16.165 16.398 23.19 15.696 7.023-.702 1.173.021 1.173.021s-16.632 2.786-15.93 13.325c.702 10.54 7.731 17.8 14.055 22.725l4.159 3.278s-19.617-2.347-22.195 1.169c-.131.178-.256.355-.377.534-1.807 2.661.058 6.259 3.274 6.259h57.531s15.93-36.306 5.155-52.466c-10.775-16.163-21.314-23.189-26.7-27.873-5.39-4.686-7.585-12.648-10.114-15.458-2.537-2.809-13.311-5.153-13.311-5.153zM531.016 113.782c-6.862 0-12.504-4.976-14.159-12.587-1.64-7.533 1.221-16.936 11.305-20.969 15.72-6.286 32.844.22 47.956 5.961a450.59 450.59 0 004.662 1.76c30.392 11.263 65.179 16.663 93.052 14.421 7.292-.581 16.412-2.101 22.236-8.706 4.081-4.625 6.076-12.305 5.076-19.575-.838-6.087-3.588-10.917-7.736-13.601-4.186-2.706-7.429-1.616-9.403-.22-3.452 2.43-5.626 7.635-4.751 11.365.503 2.142 1.928 3.409 4.238 3.761a2.018 2.018 0 011.686 2.31 2.007 2.007 0 01-2.305 1.688c-3.923-.608-6.679-3.097-7.553-6.831-1.258-5.351 1.534-12.2 6.354-15.597 4.175-2.938 9.246-2.896 13.929.128 5.154 3.339 8.544 9.18 9.544 16.443 1.168 8.517-1.147 17.255-6.045 22.807-6.789 7.69-16.894 9.419-24.944 10.058-28.449 2.279-63.865-3.195-94.781-14.656a967.622 967.622 0 01-4.693-1.771c-14.416-5.484-30.754-11.692-45.022-5.987-8.429 3.368-10.037 10.916-8.854 16.354 1.059 4.877 4.757 9.696 10.697 9.393 3.855-.184 6.4-1.09 7.166-2.562.927-1.776-.671-4.416-.687-4.438a2.027 2.027 0 01.623-2.786 2.015 2.015 0 012.782.607c.12.184 2.886 4.567.88 8.46-1.493 2.892-5.05 4.489-10.565 4.756-.232.009-.458.014-.688.014z"/><path d="M583.246 115.584c-3.499-7.38-3.122-25.981-3.122-25.981s14.641 11.478 18.146 18.858c3.499 7.38 2.138 13.189-2.012 15.159-4.149 1.97-9.513-.649-13.012-8.036zM639.248 126.47c-3.499-7.381-3.122-25.981-3.122-25.981s14.646 11.477 18.146 18.857 2.138 13.189-2.011 15.159c-4.15 1.97-9.514-.65-13.013-8.035zM725.035 96.921c-7.941 1.928-26.076-2.227-26.076-2.227s14.217-12.006 22.153-13.934c7.94-1.928 13.352.592 14.436 5.055 1.085 4.458-2.571 9.178-10.513 11.106zM616.944 89.456c-6.82 4.494-25.296 6.716-25.296 6.716s9.329-16.103 16.149-20.598c6.82-4.494 12.766-3.954 15.291-.12 2.53 3.835.677 9.508-6.144 14.002zM666.942 92.159c-4.2 5.762-20.748 11.681-20.748 11.681s.565-17.568 4.767-23.331c4.201-5.767 10.178-6.453 14.594-3.237 4.411 3.216 5.589 9.12 1.387 14.887zM689.557 72.684a6.224 6.224 0 11-12.449-.003 6.224 6.224 0 0112.449.003zM544.063 103.84a4.377 4.377 0 01-4.379 4.38 4.381 4.381 0 01-4.379-4.38 4.38 4.38 0 014.379-4.379 4.377 4.377 0 014.379 4.379zM312.318 31.621c-.76.131-2.629-4.261-2.755-4.636-1.441-4.358 1.126-8.35 4.641-11.721 1.142-1.092 3.012-3.122 5.034-3.458 1.545-.23 8.549 17.116 3.494 17.996 0 .001-10.403 1.816-10.414 1.819zM280.773 122.499s-9.371 4.913-20.376 2.572c-20.335-4.322-32.457-35.5-24.122-53.404 7.48-16.087 20.843-27.587 29.386-42.671 5.113-9.025 2.253-20.17-2.221-28.996 1.236 2.436 17.789 6.956 21.236 9.274 7.218 4.851 13.646 11.626 14.542 20.659.503 5.103-.403 18.434-3.981 22.708-.256.301-1.268 2.797-1.817 1.229l-12.647 68.629z"/><path d="M322.465 22.951s11.006 1.171 15.688 7.729c4.688 6.559 7.496 15.458 5.626 16.865-1.875 1.406-10.309 4.45-16.396 5.856-6.092 1.404-.723 1.103-.723 1.103s15.243-1.338 18.988.301c3.751 1.64 5.39 5.623 2.813 6.089-2.577.469-1.404-2.105-6.092 0-4.683 2.108-16.16 16.398-23.185 15.696-7.029-.702-1.173.021-1.173.021s16.631 2.786 15.929 13.325c-.702 10.54-7.731 17.8-14.054 22.725l-4.159 3.278s19.617-2.347 22.194 1.169c.131.178.257.355.377.534 1.807 2.661-.058 6.259-3.279 6.259h-57.526s-15.929-36.306-5.155-52.466c10.775-16.163 21.314-23.189 26.7-27.873 5.39-4.686 7.585-12.648 10.115-15.458 2.537-2.809 13.312-5.153 13.312-5.153zM204.72 113.782c-.23 0-.456-.005-.687-.016-5.521-.267-9.078-1.864-10.565-4.756-2.006-3.893.76-8.276.88-8.46a2.012 2.012 0 012.792-.607 2.02 2.02 0 01.613 2.786c-.042.063-1.608 2.672-.687 4.438.765 1.472 3.311 2.378 7.161 2.562 5.914.304 9.644-4.516 10.702-9.393 1.184-5.438-.424-12.985-8.853-16.354-14.259-5.705-30.602.508-45.018 5.987-1.592.597-3.158 1.194-4.698 1.771-30.917 11.461-66.338 16.945-94.781 14.656-8.046-.639-18.156-2.367-24.944-10.058-4.898-5.552-7.219-14.29-6.045-22.802 1-7.268 4.39-13.109 9.549-16.448 4.673-3.025 9.749-3.067 13.918-.128 4.819 3.395 7.617 10.246 6.359 15.597-.88 3.734-3.635 6.223-7.559 6.831a2.003 2.003 0 01-2.305-1.688 2.025 2.025 0 011.691-2.31c2.311-.352 3.735-1.619 4.238-3.761.875-3.73-1.299-8.935-4.751-11.368-1.975-1.391-5.212-2.483-9.397.223-4.154 2.685-6.904 7.517-7.742 13.601-.996 7.271.99 14.95 5.076 19.575 5.83 6.605 14.945 8.125 22.236 8.706 27.878 2.231 62.66-3.158 93.052-14.421 1.53-.565 3.085-1.157 4.662-1.76 15.112-5.741 32.231-12.258 47.961-5.961 10.079 4.033 12.938 13.436 11.299 20.969-1.654 7.614-7.295 12.589-14.157 12.589z"/><path d="M152.489 115.584c3.504-7.38 3.122-25.981 3.122-25.981s-14.641 11.478-18.145 18.858c-3.499 7.38-2.138 13.189 2.011 15.159s9.513-.649 13.012-8.036zM96.487 126.47c3.499-7.381 3.122-25.981 3.122-25.981s-14.646 11.477-18.146 18.857c-3.499 7.381-2.137 13.189 2.011 15.159 4.15 1.97 9.513-.65 13.013-8.035zM10.7 96.921c7.936 1.928 26.076-2.227 26.076-2.227S22.56 82.688 14.623 80.761c-7.941-1.928-13.352.592-14.437 5.055-1.083 4.457 2.573 9.177 10.514 11.105zM118.791 89.456c6.82 4.494 25.296 6.716 25.296 6.716s-9.329-16.103-16.149-20.598c-6.82-4.494-12.766-3.954-15.291-.12-2.53 3.835-.681 9.508 6.144 14.002zM68.792 92.159c4.201 5.762 20.749 11.681 20.749 11.681s-.566-17.568-4.772-23.331c-4.195-5.767-10.178-6.453-14.588-3.237-4.416 3.216-5.59 9.12-1.389 14.887z"/><circle cx="52.402" cy="72.684" r="6.223"/><path d="M191.671 103.84a4.377 4.377 0 108.753 0 4.376 4.376 0 10-8.753 0z"/></g><path fill="#FFF" d="M458.749 122.688s1.869-4.835 4.096-12.247c2.116-7.354 4.652-17.653 2.918-27.763-.346-2.52-1.068-4.966-1.923-7.312-.916-2.3-1.995-4.567-3.3-6.553-2.572-4.031-5.526-7.457-8.161-10.283-5.349-5.621-8.91-9.371-8.91-9.371s.953.88 2.608 2.42c1.655 1.543 4.107 3.659 6.867 6.401 2.734 2.761 5.93 6.047 8.623 10.178 1.388 2.064 2.498 4.327 3.498 6.736.912 2.42 1.697 4.956 2.08 7.559 1.691 10.514-1.063 20.938-3.552 28.229-1.246 3.688-2.556 6.652-3.421 8.748l-1.423 3.258zm122.627-29.031c.456 1.179.906 2.593 1.545 4.033l1.986 4.526c.764 1.498 1.529 2.996 2.241 4.399.707 1.404 1.524 2.651 2.147 3.751 1.315 2.163 2.353 3.53 2.353 3.53s-.409-1.665-1.252-4.054c-.461-1.179-.906-2.599-1.546-4.034-.633-1.445-1.309-2.985-1.99-4.525-.76-1.498-1.524-2.996-2.242-4.4-.712-1.403-1.523-2.65-2.147-3.75-1.314-2.164-2.347-3.531-2.347-3.531s.403 1.667 1.252 4.055zm56.002 10.885c.461 1.174.906 2.593 1.546 4.034l1.985 4.525 2.247 4.4c.707 1.403 1.524 2.65 2.143 3.75 1.314 2.164 2.352 3.531 2.352 3.531s-.403-1.666-1.247-4.055c-.461-1.179-.906-2.598-1.55-4.033l-1.985-4.526c-.765-1.498-1.529-2.996-2.247-4.399-.713-1.404-1.524-2.651-2.143-3.751-1.32-2.163-2.353-3.53-2.353-3.53s.409 1.665 1.252 4.054zm65.809-10.246c1.246-.209 2.724-.361 4.264-.691s3.186-.681 4.83-1.026c1.623-.445 3.242-.891 4.767-1.305 1.524-.403 2.901-.953 4.106-1.336 2.389-.848 3.939-1.587 3.939-1.587s-1.713.058-4.228.403c-1.246.21-2.724.356-4.264.691-1.54.325-3.185.682-4.829 1.027-1.624.445-3.248.891-4.768 1.304-1.519.414-2.902.954-4.106 1.336-2.389.849-3.939 1.582-3.939 1.582s1.713-.057 4.228-.398zm-107.699.068c1.104-.623 2.44-1.263 3.782-2.095 1.341-.828 2.771-1.713 4.2-2.594a1918.09 1918.09 0 004.044-2.839c1.299-.896 2.415-1.875 3.416-2.64 1.964-1.608 3.174-2.824 3.174-2.824s-1.592.635-3.845 1.803c-1.1.618-2.44 1.252-3.776 2.09-1.342.833-2.771 1.718-4.201 2.598-1.378.97-2.756 1.934-4.044 2.84-1.294.9-2.415 1.875-3.415 2.645-1.965 1.608-3.175 2.824-3.175 2.824s1.593-.64 3.84-1.808zm53.451 6.936c.733-.827 1.681-1.724 2.53-2.808.858-1.079 1.77-2.231 2.682-3.379.816-1.226 1.634-2.441 2.398-3.583.775-1.142 1.336-2.325 1.896-3.273 1.048-1.965 1.577-3.39 1.577-3.39s-1.2.938-2.75 2.535c-.733.828-1.687 1.719-2.53 2.809-.854 1.078-1.766 2.23-2.677 3.384-.817 1.215-1.635 2.44-2.399 3.583-.77 1.142-1.336 2.314-1.896 3.269-1.047 1.964-1.576 3.394-1.576 3.394s1.195-.944 2.745-2.541zm-376.049 9.14c-2.116-7.354-4.652-17.653-2.917-27.763.346-2.52 1.068-4.966 1.922-7.312.922-2.3 1.996-4.567 3.3-6.553 2.572-4.034 5.526-7.457 8.161-10.283 5.343-5.621 8.91-9.371 8.91-9.371s-.954.88-2.614 2.42c-1.65 1.543-4.102 3.659-6.862 6.401-2.734 2.761-5.93 6.047-8.623 10.178-1.388 2.064-2.498 4.327-3.499 6.736-.911 2.42-1.697 4.956-2.079 7.559-1.692 10.514 1.063 20.938 3.551 28.229 1.247 3.688 2.556 6.652 3.42 8.748.906 2.074 1.425 3.258 1.425 3.258s-1.869-4.834-4.095-12.247zM155.611 89.603s-1.032 1.367-2.347 3.531c-.624 1.1-1.435 2.347-2.148 3.75l-2.247 4.4-1.985 4.525c-.644 1.436-1.084 2.855-1.545 4.034-.844 2.389-1.252 4.054-1.252 4.054s1.037-1.367 2.352-3.53c.624-1.1 1.436-2.347 2.148-3.751.712-1.403 1.477-2.901 2.242-4.399.676-1.54 1.352-3.08 1.985-4.526.64-1.44 1.09-2.854 1.545-4.033.843-2.389 1.252-4.055 1.252-4.055zm-56.002 10.885s-1.032 1.367-2.352 3.53c-.618 1.1-1.43 2.347-2.143 3.751-.718 1.403-1.482 2.901-2.247 4.399-.676 1.54-1.352 3.08-1.985 4.526-.645 1.436-1.09 2.854-1.551 4.033-.843 2.389-1.246 4.055-1.246 4.055s1.037-1.367 2.352-3.531c.618-1.1 1.436-2.347 2.143-3.75l2.247-4.4 1.985-4.525c.634-1.441 1.084-2.86 1.545-4.034.843-2.389 1.252-4.054 1.252-4.054zm-62.833-5.794s-1.55-.733-3.939-1.582c-1.205-.382-2.588-.922-4.107-1.336-1.524-.413-3.143-.858-4.767-1.304-1.645-.346-3.289-.702-4.829-1.027-1.54-.335-3.018-.481-4.264-.691-2.514-.346-4.227-.403-4.227-.403s1.55.739 3.939 1.587c1.205.383 2.583.933 4.107 1.336 1.519.414 3.143.859 4.767 1.305 1.645.346 3.29.696 4.83 1.026s3.017.482 4.264.691c2.513.341 4.226.398 4.226.398zm107.311 1.478s-1.21-1.216-3.175-2.824c-1-.77-2.121-1.744-3.415-2.645-1.289-.906-2.666-1.87-4.044-2.84-1.43-.88-2.86-1.765-4.201-2.598-1.336-.838-2.677-1.472-3.776-2.09-2.253-1.168-3.845-1.803-3.845-1.803s1.21 1.216 3.174 2.824c1 .765 2.116 1.744 3.41 2.64 1.294.906 2.672 1.875 4.049 2.839 1.43.881 2.86 1.766 4.201 2.594 1.341.832 2.677 1.472 3.777 2.095 2.252 1.168 3.845 1.808 3.845 1.808zm-54.546 7.668s-.529-1.43-1.577-3.394c-.561-.954-1.126-2.127-1.896-3.269-.765-1.143-1.582-2.368-2.399-3.583l-2.677-3.384c-.844-1.09-1.797-1.98-2.53-2.809-1.551-1.598-2.75-2.535-2.75-2.535s.529 1.425 1.577 3.39c.561.948 1.121 2.132 1.896 3.273.765 1.142 1.582 2.357 2.399 3.583.911 1.147 1.823 2.3 2.682 3.379.849 1.084 1.797 1.98 2.53 2.808 1.551 1.598 2.745 2.541 2.745 2.541z"/></svg>