<svg xmlns="http://www.w3.org/2000/svg" width="450" height="450" viewBox="254.997 -1 450 450"><path fill="#BFC5D9" d="M480.609 11.205c-1.479.058-2.287.496-3.258 1.134-1.947 1.278-152.182 137.148-159.264 144.037-2.438 2.371-4.375 5.131-4.814 6.728-.529 1.918-.223 8.761 1.133 23.652 1.693 18.616 2.107 21.429 3.895 25.211 2.527 5.345 8.078 11.568 12.748 14.304 1.969 1.155 36.178 14.517 75.984 29.672 39.807 15.156 73.33 27.597 74.498 27.619 1.455.041 3.4-1.171 6.23-3.683 38.438-34.104 158.721-143.997 159.051-145.312 1.172-4.667-3.758-12.609-9.842-15.863-4.164-2.226-7.34-7.837-7.719-13.809-.461-7.212.693-9.628 7.363-15.863 5.031-4.7 5.816-5.796 5.809-8.073 0-3.646-4.105-10.468-7.646-12.746-1.604-1.032-35.57-14.241-75.49-29.389C499.625 16.186 485.891 11 480.613 11.205h-.004zm41.426 49.287l28.043 10.409-25.99 23.156 33.852 12.535-22.379 19.899-33.92-12.464-73.363 65.22-28.113-10.409 73.434-65.221-33.281-12.392 22.377-19.899 33.283 12.322 26.057-23.156zm96.309 46.03c.352.217.639 1.32.639 2.479 0 2.669 3.744 10.725 6.584 14.093 1.197 1.416 2.074 2.686 1.912 2.832-58.916 53.618-147.141 133.201-148.852 134.266-2.303 1.433-5.115 1.793-7.436.921-33.447-12.57-129.037-49.021-130.512-49.784-4.443-2.296-4.93-3.665-5.949-15.153-.523-5.919-.789-11.252-.566-11.897.742-2.151 2.764-3.965 4.463-3.965.924 0 31.729 11.449 68.477 25.422 43.521 16.549 67.805 25.415 69.684 25.423 2.723 0 6.633-3.429 71.877-62.53 37.957-34.381 69.332-62.32 69.682-62.104h-.003z"/><path fill="#BFC5D9" d="M640.102 150.805c-.322.125-31.68 28.412-69.691 62.851-38.014 34.438-72.74 65.845-77.146 69.791-7.543 6.756-8.205 7.16-11.461 7.16-2.65 0-20.277-6.374-75.533-27.37-39.637-15.061-73.391-28.076-75.02-28.907-1.631-.831-4.025-2.398-5.328-3.494s-2.617-2.003-2.908-2.003-2.244 1.449-4.348 3.225c-6.488 5.47-6.576 6.125-4.326 30.644 1.695 18.47 2.152 21.451 3.934 25.341 2.668 5.828 6.742 10.709 11.656 13.929 2.545 1.669 29.633 12.364 74.383 29.373 38.707 14.711 71.783 27.202 73.504 27.76s3.195 1.021 3.277 1.051c1.461.529 15.336-11.586 74.725-65.366 38.824-35.157 75.035-67.977 80.494-72.919 5.457-4.941 10.135-9.797 10.385-10.801.914-3.641-1.094-8.227-5.328-12.12-9.197-8.456-10.367-9.775-11.289-12.854-1.143-3.815-1.244-10.341-.195-13.098.42-1.101 3.41-4.573 6.646-7.698 6.252-6.033 6.77-7.235 5.033-12.218-.48-1.374-1.143-2.399-1.467-2.273l.003-.004zm-21.846 32.329c.396.242.707 1.033.707 1.761 0 3.043 1.857 7.482 5.084 12.291l3.42 5.132-73.48 66.613c-40.42 36.648-74.627 67.253-75.996 68.006s-3.014 1.354-3.668 1.319c-1.576-.083 2.674 1.497-70.352-26.245-43.906-16.679-65.084-25.081-66.346-26.343-1.645-1.643-1.951-3.083-2.859-12.73-1.094-11.631-.828-13.566 2.15-15.518 1.791-1.173 4.676-.167 69.791 24.583 37.355 14.198 68.992 25.812 70.305 25.804 1.842 0 3.709-1.21 8.211-5.278 3.209-2.897 34.297-31.05 69.082-62.557 34.783-31.506 63.555-57.082 63.951-56.84v.002z"/><path fill="#BFC5D9" d="M640.102 227.437c-.322.125-31.68 28.411-69.691 62.851-38.014 34.439-72.74 65.845-77.146 69.79-7.543 6.756-8.205 7.16-11.461 7.16-2.65 0-20.277-6.373-75.533-27.368-39.637-15.062-73.391-28.077-75.02-28.908-1.631-.831-4.025-2.399-5.328-3.494-1.303-1.096-2.617-2.003-2.908-2.003s-2.244 1.45-4.348 3.226c-6.488 5.47-6.576 6.125-4.326 30.643 1.695 18.471 2.152 21.45 3.934 25.34 2.668 5.828 6.742 10.709 11.656 13.929 2.545 1.669 29.633 12.364 74.383 29.373 38.707 14.711 71.783 27.202 73.504 27.759 1.721.558 3.195 1.022 3.277 1.051 1.461.529 15.336-11.586 74.725-65.367 38.824-35.157 75.035-67.977 80.494-72.919 5.457-4.941 10.135-9.796 10.385-10.801.914-3.641-1.094-8.228-5.328-12.12-9.197-8.456-10.367-9.775-11.289-12.854-1.143-3.815-1.244-10.34-.195-13.098.42-1.101 3.41-4.573 6.646-7.696 6.252-6.034 6.77-7.236 5.033-12.219-.48-1.374-1.143-2.399-1.467-2.273h.003zm-21.846 32.33c.396.242.707 1.032.707 1.759 0 3.043 1.857 7.482 5.084 12.292l3.42 5.131-73.48 66.613c-40.42 36.649-74.627 67.253-75.996 68.007-1.369.752-3.014 1.354-3.668 1.32-1.576-.084 2.674 1.496-70.352-26.245-43.906-16.68-65.084-25.081-66.346-26.343-1.645-1.645-1.951-3.085-2.859-12.731-1.094-11.631-.828-13.565 2.15-15.518 1.791-1.173 4.676-.171 69.791 24.583 37.355 14.198 68.992 25.812 70.305 25.805 1.842 0 3.709-1.212 8.211-5.279 3.209-2.898 34.297-31.05 69.082-62.558 34.783-31.506 63.555-57.081 63.951-56.838v.002z"/></svg>