<?xml version="1.0" standalone="no"?>
<!DOCTYPE svg PUBLIC "-//W3C//DTD SVG 20010904//EN"
 "http://www.w3.org/TR/2001/REC-SVG-20010904/DTD/svg10.dtd">
<svg version="1.0" xmlns="http://www.w3.org/2000/svg"
 width="500.000000pt" height="500.000000pt" viewBox="0 0 500.000000 500.000000"
 preserveAspectRatio="xMidYMid meet">
<metadata>
Created by potrace 1.11, written by Peter Selinger 2001-2013
</metadata>
<g transform="translate(0.000000,500.000000) scale(0.100000,-0.100000)"
fill="#000000" stroke="none">
<path d="M0 2500 l0 -2500 2500 0 2500 0 0 2500 0 2500 -2500 0 -2500 0 0
-2500z m2666 2021 l149 -69 3 -166 2 -167 46 -19 c25 -11 47 -20 49 -20 2 0 5
27 7 60 l3 61 109 50 109 50 159 -72 158 -72 0 -163 0 -164 40 -20 c21 -11 44
-20 50 -20 6 0 10 25 10 58 l0 59 111 50 111 51 129 -59 c71 -32 142 -65 159
-74 l30 -16 0 -514 c0 -481 -1 -514 -17 -519 -10 -3 -249 -66 -532 -141 l-514
-136 -114 52 -113 52 0 82 0 82 -156 71 -157 72 -151 -69 -151 -69 0 -448 0
-448 145 -67 c80 -37 152 -68 160 -68 8 0 80 30 160 68 l145 67 5 154 5 155
515 137 c283 76 524 139 535 140 11 1 68 -20 128 -47 l107 -49 -2 -640 -3
-640 -790 -363 c-434 -200 -796 -363 -805 -363 -9 0 -371 163 -805 363 l-790
363 0 1364 0 1364 158 73 158 72 107 -49 107 -49 3 -61 c2 -33 7 -60 13 -60 5
0 28 9 49 20 l40 20 0 164 0 163 160 73 161 73 107 -50 107 -49 3 -63 c3 -68
6 -69 74 -35 l28 14 2 166 3 166 145 68 c80 37 154 68 166 69 11 1 88 -30 170
-68z"/>
</g>
</svg>
